<svg width="96" height="112" viewBox="0 0 96 112" fill="none" xmlns="http://www.w3.org/2000/svg">
<path d="M92.9687 66.8471C91.4216 64.1446 89.2415 62.0525 86.4207 60.5532C83.5999 59.0598 80.3045 58.3135 76.5362 58.3135H70.2363C69.2704 60.7192 67.9841 63.914 66.6215 67.2857L66.4261 67.772C65.3653 70.3974 64.2392 73.1889 63.1315 75.9384V80.6853C63.1315 81.5389 63.2087 82.3741 63.3688 83.1858C63.6891 84.9106 64.3407 86.5105 65.2589 87.9326C65.7745 88.7385 66.3791 89.4856 67.0541 90.1606C69.4783 92.5906 72.8324 94.0899 76.5362 94.0899C80.2399 94.0899 83.5588 93.3436 86.3972 91.8502C89.2297 90.3509 91.4225 88.2471 92.9695 85.5269C94.5166 82.8126 95.2864 79.7017 95.2864 76.1992C95.2864 72.6967 94.5158 69.5497 92.9695 66.848L92.9687 66.8471ZM83.6712 83.8432C82.753 84.7437 81.6503 85.4196 80.3699 85.8699C79.0836 86.3202 77.6204 86.5457 75.9727 86.5457C73.691 86.5457 71.8421 84.6968 71.8421 82.421V65.7512H75.9727C79.2672 65.7512 81.834 66.6694 83.6712 68.5066C85.5025 70.3379 86.4207 72.9038 86.4207 76.1983C86.4207 79.4929 85.5025 82.0479 83.6712 83.8432Z" fill="#E76F51"/>
<path d="M52.707 67.0246V72.3282H39.1481V50.1996C38.7808 49.5598 38.3833 48.9133 37.9632 48.2559C37.4123 47.3906 36.6065 46.1814 35.581 44.6821H30.4375V89.7326C30.4375 90.9359 30.9238 92.026 31.7121 92.8142C32.5003 93.6024 33.5903 94.0879 34.7936 94.0879C37.1994 94.0879 39.1489 92.1384 39.1489 89.7326V79.3618H52.7078V107.511C52.7078 107.89 52.7556 108.251 52.8504 108.601C53.0399 109.366 53.4432 110.053 53.9824 110.593C54.0595 110.67 54.1367 110.741 54.2197 110.811C54.6172 110.835 55.257 110.794 56.0334 110.408C57.9947 109.436 59.66 106.948 60.9757 103.018C61.0998 102.651 61.2482 102.183 61.4201 101.614V58.3115C56.6078 58.3115 52.7087 62.2106 52.7087 67.0229L52.707 67.0246Z" fill="black"/>
<path d="M32.5799 17.5337C28.2087 17.9312 23.9767 21.0588 22.6057 24.7827C22.5755 24.8641 22.547 24.9454 22.5193 25.0276C21.2615 24.4758 19.7438 24.1102 18.4894 24.2167C18.4634 24.2192 18.4366 24.2218 18.4106 24.2243C14.9424 24.5697 11.9497 26.287 10.0924 28.9611C8.09337 31.8297 7.67243 35.4328 8.77928 38.5689C9.44591 40.4623 10.6031 42.0597 12.1879 43.3451C12.2055 43.3585 12.2223 43.3728 12.2399 43.3854C15.3919 45.7357 18.8189 46.0619 20.153 46.1106C20.1547 46.1324 20.153 46.1533 20.1555 46.1751C20.3014 48.0274 20.4473 49.8797 20.5932 51.732C20.6335 52.241 20.8993 52.7022 21.3135 52.9839C21.6154 53.1902 21.9726 53.2841 22.3265 53.2581C22.4548 53.2481 22.5856 53.2229 22.7113 53.1802C26.1208 52.0347 29.9335 51.4193 33.9585 51.4117C40.8251 51.3966 45.8403 53.1693 45.8781 53.1743C46.008 53.2187 46.1414 53.2464 46.2755 53.2565C46.6277 53.2825 46.9807 53.1902 47.2834 52.9865C47.6993 52.7047 47.9693 52.2427 48.0096 51.7312C48.1555 49.8772 48.3014 48.0224 48.4473 46.1684C48.449 46.15 48.449 46.1315 48.449 46.1122C49.763 46.0678 53.216 45.7525 56.3906 43.3862C56.4074 43.3728 56.4258 43.3594 56.4426 43.346C58.0283 42.0613 59.1846 40.464 59.8512 38.5697C60.9581 35.4336 60.538 31.8305 58.5381 28.9619C56.6816 26.2879 53.6889 24.5706 50.2208 24.2251C50.1948 24.2226 50.168 24.2201 50.142 24.2176C48.8884 24.1111 47.369 24.4767 46.1112 25.0284C46.0843 24.9462 46.0558 24.8649 46.0248 24.7836C44.6547 21.0597 40.4218 17.9328 36.0506 17.5354" fill="black"/>
<path d="M32.782 19.1821C29.2862 19.4983 25.6076 22.0197 24.3742 25.2874C23.7511 26.9183 24.0563 28.6289 24.9527 30.0871C23.6035 29.1371 23.1927 28.3824 19.9384 27.4592C21.2263 27.0877 22.999 27.2647 22.999 27.2663C21.9181 26.4362 19.8646 25.7411 18.5741 25.8735C11.9045 26.5544 8.63842 32.9062 10.453 38.0154C11.0316 39.7067 12.0479 41.0374 13.3048 42.0654C16.7327 44.6422 20.6301 44.4477 20.6419 44.4527C20.6159 44.4452 20.5907 44.4368 20.5681 44.4275C19.5568 43.9949 17.6081 43.1949 16.7981 42.405C21.192 44.0661 25.3628 42.5409 25.3829 42.5417C23.4853 40.1561 22.8749 36.7978 22.8799 36.7962C24.2895 39.3805 26.7782 41.3795 29.604 41.9397C28.3462 40.3465 27.3895 38.8522 27.0784 37.3571C27.0843 37.3689 29.5361 40.8538 34.3165 41.9002C39.0961 40.8529 41.5488 37.368 41.5547 37.3571C41.2427 38.8522 40.2876 40.3465 39.029 41.9397C41.854 41.3795 44.3444 39.3805 45.7531 36.7962C45.7573 36.7987 45.1477 40.157 43.2501 42.5417C43.2703 42.5409 47.4402 44.0661 51.8349 42.405C51.0249 43.1958 49.0754 43.9957 48.0649 44.4275C48.0423 44.4368 48.0172 44.4452 47.9912 44.4527C48.0037 44.4477 51.8995 44.6414 55.3282 42.0654C56.586 41.0374 57.6006 39.7067 58.1801 38.0154C59.9938 32.9071 56.7286 26.5544 50.0581 25.8735C48.7668 25.7411 46.7149 26.437 45.6332 27.2663C45.6332 27.2647 47.405 27.0877 48.6938 27.4592C45.4404 28.3824 45.0295 29.1371 43.6795 30.0871C44.575 28.6281 44.8819 26.9175 44.2581 25.2874C43.0237 22.0197 39.346 19.4991 35.8502 19.1821" fill="white"/>
<path d="M46.138 45.1016C39.4625 43.0237 32.8449 43.2417 28.2062 43.8924C27.9756 45.5946 28.363 49.3504 36.1059 49.8073C42.1844 50.1109 46.4667 51.5959 46.3929 51.601C46.5212 49.7453 46.6495 47.8896 46.7786 46.034C46.808 45.6164 46.5439 45.2265 46.138 45.1016Z" fill="white"/>
<path d="M58.0442 31.7866C58.0191 31.8965 55.3777 43.2409 43.2493 42.5407C43.2694 42.5398 47.4394 44.0651 51.8341 42.404C51.0241 43.1947 49.0745 43.9947 48.065 44.4265C48.0423 44.4357 48.0172 44.4441 47.9912 44.4517C48.0037 44.4466 51.8995 44.6403 55.3282 42.0644C56.586 41.0364 57.6006 39.7056 58.1801 38.0143C58.8987 35.9901 58.8173 33.7714 58.0451 31.7866H58.0442Z" fill="#E75329"/>
<path d="M10.9905 30.8926C9.85763 33.087 9.62285 35.6797 10.4521 38.0142C11.0307 39.7055 12.047 41.0362 13.304 42.0642C16.7318 44.641 20.6293 44.4465 20.641 44.4515C20.6151 44.444 20.5899 44.4356 20.5681 44.4263C19.5568 43.9937 17.6081 43.1937 16.7981 42.4038C21.192 44.0649 25.3628 42.5388 25.3829 42.5405C25.3829 42.5405 11.1582 41.9401 10.9905 30.8926Z" fill="#E75329"/>
<path d="M46.138 45.1016C39.4625 43.0237 32.8449 43.2417 28.207 43.8924C28.207 43.8924 29.1613 48.4892 37.8953 48.3357C41.0926 48.2796 44.0753 48.5831 46.5741 48.9898C46.642 48.0045 46.7107 47.0193 46.7787 46.034C46.808 45.6164 46.5439 45.2265 46.138 45.1016Z" fill="#E75329"/>
<path d="M32.891 20.1504C29.6434 20.4296 26.2264 22.6567 25.0802 25.5429C24.7917 26.2607 24.7179 26.9961 24.8186 27.7122C24.8647 27.3835 24.9494 27.0556 25.0802 26.7303C26.2264 23.8441 29.6434 21.6178 32.891 21.3377" fill="#E75329"/>
<path d="M35.7403 21.3386C38.9879 21.6178 42.4049 23.8449 43.5512 26.7311C43.682 27.0556 43.7667 27.3843 43.8128 27.7122C43.9143 26.9961 43.8396 26.2607 43.5512 25.5429C42.4049 22.6567 38.9879 20.4305 35.7403 20.1504" fill="#E75329"/>
<path d="M8.77676 0.417324C8.46986 0.162413 7.93991 0.37372 7.88876 0.768665C7.8678 0.929661 7.91979 1.09066 8.03047 1.20889C8.83965 2.0776 11.4223 4.96631 13.6285 7.8718C16.0233 11.0255 17.1486 13.1109 16.8836 13.9033L16.793 14.1725L16.5205 14.0911C15.8791 13.8991 14.4561 12.4761 12.4042 9.97649C10.5083 7.66636 8.40278 4.83718 7.00915 2.9656L6.36265 2.09856C6.19411 1.87216 5.87463 1.8143 5.63481 1.96608C5.47717 2.06586 5.3908 2.1908 5.36062 2.33587C5.33043 2.48009 5.35978 2.62767 5.44279 2.7501C5.90649 3.43601 6.51442 4.29466 7.15841 5.20445C8.70213 7.38378 10.6223 10.0964 11.959 12.394C13.3777 14.8332 13.8733 16.3568 13.4306 16.9228L13.3643 17.0075L13.2603 17.0293C12.6071 17.1677 11.5229 16.1589 10.0362 14.0291C8.62499 12.0057 7.05443 9.26039 5.79245 7.05507C5.02437 5.71176 4.36613 4.56131 3.84792 3.74375C3.77078 3.62048 3.64919 3.53579 3.50664 3.50477C3.36493 3.47374 3.21903 3.4989 3.0966 3.57772L3.04294 3.6121C2.80731 3.76135 2.72178 4.06322 2.84588 4.31226C3.28359 5.19858 3.88481 6.35155 4.52042 7.5716C5.67842 9.79369 6.99154 12.3118 7.97429 14.4534C8.96962 16.6209 9.45764 18.0599 9.38469 18.615L9.34695 18.9034L9.05766 18.8682C8.22669 18.7659 6.82048 16.8591 4.99083 13.3532C3.30456 10.1249 1.79018 6.55364 1.34828 5.4493C1.28791 5.29921 1.16464 5.18433 1.01036 5.13402C0.85523 5.08371 0.687525 5.10551 0.550007 5.19271C0.350439 5.31933 0.254847 5.55831 0.313544 5.78723C0.700941 7.29992 2.8702 15.1846 7.47369 21.8785C7.51143 21.938 10.7683 26.913 16.2899 24.789L16.5272 24.6976L16.6513 24.919C17.9611 27.2534 19.8285 30.6109 21.8007 34.1561C27.0784 43.6457 33.6465 55.4555 35.3965 58.2268C37.1692 61.0333 38.9342 62.65 40.6423 63.034C41.7676 63.2873 42.4275 62.8798 42.4552 62.8622C42.4829 62.8445 43.1327 62.4211 43.3835 61.295C43.7633 59.5869 43.0522 57.3011 41.2687 54.5012C39.5179 51.7526 31.676 40.8367 25.3753 32.0665L25.0777 31.6515C22.7885 28.4659 20.6326 25.464 19.125 23.3493L18.9774 23.1421L19.161 22.9669C23.4392 18.8724 20.3316 13.8261 20.2997 13.7758C16.1893 6.7356 9.98004 1.41265 8.77676 0.417324Z" fill="white"/>
<path d="M42.0246 55.1816C41.8669 54.9066 41.6959 54.6282 41.5148 54.3456C41.2775 53.9733 40.9311 53.4534 40.4901 52.8086C37.6584 48.6621 31.0039 39.3998 25.5115 31.7566C23.1486 28.4688 20.9139 25.357 19.3618 23.1802C23.837 18.8987 20.5726 13.6579 20.5466 13.6202C16.4178 6.54138 10.1733 1.1916 8.9658 0.192918C8.68574 -0.0393526 8.29079 -0.0645083 7.98221 0.131706C7.77091 0.264193 7.63087 0.483047 7.59733 0.732927C7.56714 0.980292 7.64597 1.22766 7.81619 1.40794C8.62201 2.27413 11.198 5.15446 13.3957 8.04988C16.7087 12.4136 16.6886 13.5623 16.6047 13.8097C16.3524 13.7359 15.435 13.206 12.631 9.79066C10.7301 7.4713 8.61698 4.63458 7.22 2.7588L6.59781 1.92279C6.33787 1.57397 5.84566 1.48424 5.47922 1.71903L5.44568 1.73916C5.25198 1.86158 5.1195 2.05276 5.07338 2.27665C5.02726 2.49802 5.07086 2.72526 5.19832 2.91393C5.66202 3.60235 6.27414 4.46352 6.91897 5.37332C8.4585 7.55012 10.3779 10.2594 11.7053 12.5402C13.5785 15.7643 13.3387 16.5617 13.1987 16.7403C12.9899 16.7865 12.2302 16.6615 10.2756 13.86C8.87105 11.8442 7.30133 9.10139 6.03936 6.89691C5.27462 5.56115 4.6147 4.4065 4.09482 3.58642C3.97491 3.39524 3.78876 3.26527 3.56991 3.21663C3.35105 3.168 3.12633 3.20909 2.93766 3.329L2.88399 3.36254C2.52175 3.59229 2.39178 4.056 2.58045 4.44088C3.019 5.32804 3.62022 6.4852 4.25749 7.70609C5.41717 9.92817 6.72946 12.4471 7.7055 14.5753C9.04882 17.5009 9.12009 18.3469 9.09242 18.5767C8.82996 18.5432 7.78265 18.0694 5.24863 13.2169C3.56739 9.99526 2.05805 6.43992 1.62034 5.34145C1.52642 5.10918 1.33776 4.93141 1.10045 4.85427C0.860636 4.77796 0.60321 4.81067 0.391902 4.94567C0.0833251 5.13937 -0.0617394 5.50664 0.0271441 5.8605C0.417057 7.3799 2.59889 15.3081 7.23006 22.0448C7.2636 22.0985 10.6118 27.2848 16.3951 25.0627C17.7024 27.3971 19.5706 30.7537 21.5437 34.299C26.8222 43.7928 33.3953 55.6084 35.1462 58.3814C36.191 60.0333 37.2383 61.2844 38.2789 62.1279C39.0512 62.7526 39.8184 63.1501 40.5781 63.3203C41.1894 63.4578 41.6816 63.4176 42.0254 63.3354C42.3692 63.2541 42.5705 63.1342 42.6115 63.1082C42.6904 63.057 43.3964 62.5807 43.6689 61.3573C44.0287 59.7465 43.4752 57.672 42.0254 55.1791L42.0246 55.1816ZM42.1571 62.3812C42.1571 62.3812 42.1546 62.3837 42.1495 62.3862C42.1369 62.3937 42.0959 62.4139 42.0246 62.4399C42.007 62.4449 41.986 62.4524 41.9659 62.4575C41.9432 62.465 41.9223 62.4726 41.8971 62.4776C41.851 62.4902 41.7973 62.5027 41.737 62.5111C41.7034 62.5187 41.6682 62.5237 41.6296 62.5262C41.6246 62.5287 41.6196 62.5287 41.6145 62.5287C41.5709 62.5338 41.5257 62.5363 41.477 62.5388C41.342 62.5464 41.1919 62.5413 41.0209 62.5162C40.9873 62.5136 40.9546 62.5086 40.9211 62.5011C40.6561 62.4575 40.3551 62.3686 40.0163 62.2101C39.9752 62.19 39.9325 62.169 39.8889 62.1489C39.8478 62.1288 39.805 62.1053 39.7639 62.0852C39.7178 62.06 39.67 62.034 39.6214 62.0038C39.5727 61.9762 39.5216 61.9451 39.4713 61.9149C39.3715 61.8537 39.2675 61.785 39.1602 61.7087C39.1065 61.6701 39.0529 61.6324 39 61.5913C38.8852 61.5049 38.7652 61.4102 38.6462 61.3087C38.5263 61.2039 38.4038 61.0949 38.2789 60.975C38.2688 60.9674 38.2613 60.9599 38.2512 60.9473C38.185 60.8861 38.1187 60.8198 38.0525 60.7536C37.5452 60.2413 37.0002 59.5864 36.4241 58.7554C36.3654 58.669 36.3042 58.5818 36.2455 58.4929C36.1205 58.3118 35.9981 58.1231 35.8732 57.9269C34.1324 55.1715 27.5693 43.366 22.2933 33.8823C20.2263 30.1659 18.2742 26.6567 16.9561 24.3147C16.8488 24.1235 16.6148 24.0422 16.4136 24.1286C11.0948 26.4203 8.082 21.7866 7.947 21.5744C7.82709 21.4009 7.70969 21.2256 7.59565 21.0495C7.53696 20.9631 7.48078 20.8759 7.4246 20.7896C6.97347 20.0986 6.5475 19.4001 6.15004 18.7C6.04019 18.5088 5.9337 18.3201 5.82889 18.1289C5.70143 17.8967 5.57649 17.6652 5.45407 17.433C5.33416 17.2116 5.21928 16.9894 5.10776 16.768C4.75055 16.0695 4.41933 15.3761 4.11159 14.701C4.00678 14.4772 3.90783 14.255 3.81308 14.0361C3.32841 12.9376 2.90831 11.8878 2.54607 10.9193C1.68994 8.62511 1.16502 6.803 0.935265 5.93932C1.48869 7.28766 2.91334 10.5982 4.4906 13.616C6.20119 16.8913 7.33739 18.3947 8.1407 19.032C8.1583 19.0446 8.17424 19.0572 8.19184 19.0706C8.25054 19.1142 8.30421 19.1519 8.36039 19.188C8.43418 19.2366 8.50797 19.2769 8.57673 19.3104C8.60691 19.3255 8.64046 19.3381 8.67064 19.3515C8.70418 19.3666 8.7394 19.3792 8.77294 19.3901C8.80061 19.3976 8.82912 19.4052 8.85679 19.4127C9.07816 19.4689 9.26432 19.4463 9.42783 19.3926C9.62907 19.3263 9.78755 19.1762 9.87141 18.9666C10.3712 17.7457 8.17675 13.367 5.02139 7.31366C4.84027 6.96986 4.68766 6.61517 4.54762 6.26383C4.54762 6.26383 4.54678 6.26215 4.54511 6.2588C4.1988 5.3817 3.9464 4.5306 3.63783 3.90674L3.66047 3.89164C4.17029 4.69411 4.82014 5.83367 5.57481 7.15182C9.30373 13.6713 11.8067 18.3939 13.6238 17.5026C13.6515 17.4875 13.6775 17.4724 13.7001 17.4514C15.3696 16.1207 12.0868 11.1893 7.61913 4.88362C6.98437 3.98388 6.6758 2.94663 6.21964 2.26826L6.82841 3.08666C12.0256 10.0699 15.2287 14.6021 16.6207 14.6834C16.8479 14.696 17.0542 14.6197 17.1993 14.4621C17.7527 13.8785 17.8978 12.5637 14.08 7.53503C12.0189 4.82157 9.64333 1.64524 8.65974 0.570254C10.2655 1.92615 15.9641 7.46962 19.8129 14.0654C19.9404 14.2642 22.8484 18.9641 18.5107 22.7995C18.3447 22.9446 18.317 23.1894 18.4445 23.368C19.9991 25.5549 22.3386 28.8092 24.8139 32.2555C30.1025 39.6161 36.4694 48.4784 39.4512 52.8086C40.0423 53.6672 40.501 54.3481 40.792 54.8043C41.3144 55.6252 41.7194 56.3664 42.0254 57.0322C43.9163 61.1175 42.168 62.3745 42.1579 62.382L42.1571 62.3812Z" fill="black"/>
<path d="M17.8379 22.2874C17.8379 22.2874 22.3533 18.2684 18.4072 13.5483C18.4072 13.5483 19.577 17.6085 17.8379 22.2874Z" fill="#0E2E4B"/>
<path d="M10.0865 16.1858C8.46316 13.4028 4.829 6.78345 3.46724 4.29639C3.88985 5.14162 4.43909 6.19648 5.01934 7.31004C8.17387 13.3633 10.3683 17.7429 9.87104 18.963C9.78635 19.171 9.62787 19.3227 9.42578 19.389C9.15075 19.4787 8.81282 19.4795 8.35751 19.1852C8.30384 19.15 8.2485 19.1123 8.19064 19.0687C6.00377 17.5015 4.00725 14.0316 2.5457 10.9182C3.70202 14.014 5.46628 17.9652 7.94663 21.5725C8.08163 21.7855 11.0944 26.4183 16.4124 24.1283C16.6136 24.0411 16.8484 24.1208 16.9557 24.3119C18.2722 26.6539 20.2243 30.1648 22.2912 33.8812C27.5664 43.3657 34.1312 55.1696 35.872 57.9241C39.5212 63.7007 42.0351 62.4463 42.15 62.3843L17.0362 22.795C13.1681 23.1917 10.0865 16.1858 10.0865 16.1858Z" fill="black"/>
<path d="M82.6104 54.6805C80.8386 55.8653 78.8237 56.6242 76.7374 56.8078C76.0557 56.8732 75.3564 56.8791 74.6629 56.8078C74.5329 56.8019 74.3962 56.7902 74.2654 56.7726L73.951 56.7315L73.9275 56.8086L73.8621 57.0342C72.9674 60.2583 71.6987 64.8861 70.3537 69.7756C68.2557 77.391 65.8676 86.084 63.9776 92.7871C62.9169 96.527 62.0222 99.6496 61.4176 101.617C61.2457 102.185 61.0973 102.654 60.9732 103.021C59.6575 106.951 57.9922 109.439 56.0309 110.411C55.2544 110.796 54.6146 110.838 54.2172 110.815C53.9564 110.797 53.7962 110.743 53.7845 110.737C53.7552 110.726 53.3225 110.577 52.8479 110.073C52.6223 109.836 52.3917 109.522 52.1905 109.107C51.9356 108.597 51.7578 108.011 51.663 107.359C51.5507 106.588 51.5507 105.723 51.663 104.763C51.8056 103.465 52.1553 101.996 52.7062 100.366C52.7179 100.325 52.7296 100.277 52.7472 100.236C52.7766 100.147 52.8127 100.052 52.8479 99.9456C53.9564 96.7752 57.583 87.6789 61.3933 78.2145C61.3991 78.1968 61.4109 78.1734 61.4167 78.1549C62.7559 74.836 64.1076 71.4702 65.393 68.2998L65.6303 67.7069C67.2839 63.6116 68.8486 59.73 70.0217 56.8086C70.1525 56.4766 70.2707 56.1688 70.3948 55.8661L70.5189 55.5701L70.2405 55.4158C67.6445 53.9107 65.7251 51.4035 64.8237 48.5534C63.3479 43.913 65.2505 38.663 67.5673 34.633C69.1907 31.8064 71.3306 29.264 73.837 27.1836C74.631 26.5195 75.4905 25.8503 76.4028 25.2751C78.1688 24.1607 80.1359 23.4144 82.27 23.8169C85.0556 24.3502 87.0999 26.5841 87.9057 29.2338C90.2284 36.8962 90.0096 49.7441 82.6079 54.6805H82.6104Z" fill="black"/>
<path d="M72.8685 52.204C72.9884 52.4555 73.8956 52.635 74.1204 52.6987C75.1476 52.9888 76.2402 53.0509 77.295 52.8496C81.1967 52.1058 83.4749 48.2243 84.7545 44.6807C86.6638 39.3938 87.0613 32.6571 84.8451 27.4541C85.0874 28.0243 85.5109 28.5425 85.7708 29.1177C86.4919 30.7168 86.928 32.4542 87.1586 34.2051C88.0533 40.9778 87.0185 49.109 81.055 53.123C78.6895 54.7153 74.3786 55.3702 72.8676 52.204H72.8685Z" fill="white"/>
<path d="M71.1612 56.4238L71.7088 56.6091L54.5392 108.676C54.5392 108.676 52.2836 105.947 54.4226 99.8216C56.5609 93.6962 71.1621 56.4247 71.1621 56.4247L71.1612 56.4238Z" fill="white"/>
<path d="M78.2753 26.5762C78.2753 26.5762 67.7568 32.6068 67.003 43.8674C67.003 43.8674 88.3568 33.8973 78.2753 26.5762Z" fill="white"/>
<path d="M52.8487 78.8999V110.073C52.6232 109.836 52.3926 109.522 52.1913 109.107C51.9364 108.597 51.7586 108.011 51.6639 107.359V78.8999H52.8487Z" fill="black"/>
<path d="M90.8422 95.6924H34.8875C34.5563 97.3753 33.2264 98.7052 31.5435 99.0364V108.66C33.2264 108.991 34.5563 110.321 34.8875 112.004H90.8422C91.1734 110.321 92.5033 108.991 94.1862 108.66V99.0364C92.5033 98.7052 91.1734 97.3753 90.8422 95.6924Z" fill="black"/>
<path d="M89.1029 102.635L87.6858 104.052L89.1029 105.469L90.52 104.052L89.1029 102.635Z" fill="#E75329"/>
<path d="M36.2551 102.636L34.838 104.053L36.2551 105.47L37.6722 104.053L36.2551 102.636Z" fill="#E75329"/>
<path d="M89.4561 96.8071H36.0095C35.5315 98.2611 34.3651 99.4275 32.9111 99.9055V108.212C34.3651 108.69 35.5315 109.856 36.0095 111.31H89.4553C89.9333 109.856 91.0996 108.69 92.5536 108.212V99.9055C91.0996 99.4275 89.9333 98.2611 89.4553 96.8071H89.4561ZM92.0908 107.888C90.7475 108.428 89.6716 109.503 89.1316 110.847H36.3332C35.7932 109.504 34.7182 108.428 33.374 107.888V100.229C34.7173 99.6891 35.7932 98.6141 36.3332 97.27H89.1316C89.6716 98.6133 90.7466 99.6891 92.0908 100.229V107.888Z" fill="white"/>
<path d="M42.5932 103.183C42.5932 103.197 42.5877 103.209 42.5767 103.22C42.5684 103.229 42.5574 103.233 42.5436 103.233H41.1904C41.1766 103.233 41.1697 103.24 41.1697 103.254V103.895C41.1697 103.909 41.1766 103.916 41.1904 103.916H42.0801C42.0939 103.916 42.1049 103.921 42.1132 103.932C42.1242 103.94 42.1298 103.952 42.1298 103.965V104.367C42.1298 104.381 42.1242 104.393 42.1132 104.404C42.1049 104.412 42.0939 104.416 42.0801 104.416H41.1904C41.1766 104.416 41.1697 104.423 41.1697 104.437V105.579C41.1697 105.593 41.1642 105.605 41.1531 105.616C41.1449 105.625 41.1338 105.629 41.12 105.629H40.6358C40.6221 105.629 40.6096 105.625 40.5986 105.616C40.5903 105.605 40.5862 105.593 40.5862 105.579V102.782C40.5862 102.768 40.5903 102.757 40.5986 102.749C40.6096 102.738 40.6221 102.732 40.6358 102.732H42.5436C42.5574 102.732 42.5684 102.738 42.5767 102.749C42.5877 102.757 42.5932 102.768 42.5932 102.782V103.183ZM42.9515 105.629C42.9377 105.629 42.9253 105.625 42.9143 105.616C42.906 105.605 42.9018 105.593 42.9018 105.579V102.782C42.9018 102.768 42.906 102.757 42.9143 102.749C42.9253 102.738 42.9377 102.732 42.9515 102.732H43.4357C43.4495 102.732 43.4605 102.738 43.4688 102.749C43.4798 102.757 43.4853 102.768 43.4853 102.782V105.579C43.4853 105.593 43.4798 105.605 43.4688 105.616C43.4605 105.625 43.4495 105.629 43.4357 105.629H42.9515ZM45.6525 102.782C45.6525 102.768 45.6567 102.757 45.6649 102.749C45.676 102.738 45.6884 102.732 45.7022 102.732H46.1864C46.2002 102.732 46.2112 102.738 46.2195 102.749C46.2305 102.757 46.236 102.768 46.236 102.782V105.579C46.236 105.593 46.2305 105.605 46.2195 105.616C46.2112 105.625 46.2002 105.629 46.1864 105.629H45.7187C45.6911 105.629 45.6718 105.618 45.6608 105.596L44.589 103.825C44.5835 103.816 44.578 103.814 44.5724 103.816C44.5669 103.816 44.5642 103.822 44.5642 103.833L44.5724 105.579C44.5724 105.593 44.5669 105.605 44.5559 105.616C44.5476 105.625 44.5366 105.629 44.5228 105.629H44.0386C44.0248 105.629 44.0124 105.625 44.0014 105.616C43.9931 105.605 43.9889 105.593 43.9889 105.579V102.782C43.9889 102.768 43.9931 102.757 44.0014 102.749C44.0124 102.738 44.0248 102.732 44.0386 102.732H44.5062C44.5338 102.732 44.5531 102.743 44.5642 102.765L45.6318 104.528C45.6374 104.536 45.6429 104.541 45.6484 104.541C45.6539 104.538 45.6567 104.531 45.6567 104.52L45.6525 102.782ZM48.728 103.183C48.728 103.197 48.7225 103.209 48.7114 103.22C48.7032 103.229 48.6921 103.233 48.6783 103.233H47.321C47.3072 103.233 47.3003 103.24 47.3003 103.254V103.895C47.3003 103.909 47.3072 103.916 47.321 103.916H48.2107C48.2245 103.916 48.2355 103.921 48.2438 103.932C48.2549 103.94 48.2604 103.952 48.2604 103.965V104.367C48.2604 104.381 48.2549 104.393 48.2438 104.404C48.2355 104.412 48.2245 104.416 48.2107 104.416H47.321C47.3072 104.416 47.3003 104.423 47.3003 104.437V105.107C47.3003 105.121 47.3072 105.128 47.321 105.128H48.6783C48.6921 105.128 48.7032 105.134 48.7114 105.145C48.7225 105.153 48.728 105.164 48.728 105.178V105.579C48.728 105.593 48.7225 105.605 48.7114 105.616C48.7032 105.625 48.6921 105.629 48.6783 105.629H46.7665C46.7527 105.629 46.7403 105.625 46.7292 105.616C46.7209 105.605 46.7168 105.593 46.7168 105.579V102.782C46.7168 102.768 46.7209 102.757 46.7292 102.749C46.7403 102.738 46.7527 102.732 46.7665 102.732H48.6783C48.6921 102.732 48.7032 102.738 48.7114 102.749C48.7225 102.757 48.728 102.768 48.728 102.782V103.183ZM50.0116 105.629C49.9978 105.629 49.9854 105.625 49.9744 105.616C49.9661 105.605 49.9619 105.593 49.9619 105.579V102.782C49.9619 102.768 49.9661 102.757 49.9744 102.749C49.9854 102.738 49.9978 102.732 50.0116 102.732H51.0462C51.2531 102.732 51.4338 102.769 51.5883 102.844C51.7455 102.916 51.8669 103.018 51.9525 103.15C52.038 103.283 52.0807 103.436 52.0807 103.609V104.752C52.0807 104.925 52.038 105.079 51.9525 105.211C51.8669 105.343 51.7455 105.447 51.5883 105.521C51.4338 105.593 51.2531 105.629 51.0462 105.629H50.0116ZM50.5454 105.107C50.5454 105.121 50.5523 105.128 50.5661 105.128H51.0669C51.1938 105.128 51.2958 105.085 51.3731 105C51.4531 104.914 51.4945 104.8 51.4972 104.656V103.705C51.4972 103.561 51.4572 103.447 51.3772 103.361C51.3 103.276 51.1951 103.233 51.0627 103.233H50.5661C50.5523 103.233 50.5454 103.24 50.5454 103.254V105.107ZM52.5697 105.629C52.5559 105.629 52.5435 105.625 52.5325 105.616C52.5242 105.605 52.5201 105.593 52.5201 105.579V102.782C52.5201 102.768 52.5242 102.757 52.5325 102.749C52.5435 102.738 52.5559 102.732 52.5697 102.732H53.0539C53.0677 102.732 53.0787 102.738 53.087 102.749C53.0981 102.757 53.1036 102.768 53.1036 102.782V105.579C53.1036 105.593 53.0981 105.605 53.087 105.616C53.0787 105.625 53.0677 105.629 53.0539 105.629H52.5697ZM55.2708 102.782C55.2708 102.768 55.2749 102.757 55.2832 102.749C55.2942 102.738 55.3066 102.732 55.3204 102.732H55.8046C55.8184 102.732 55.8294 102.738 55.8377 102.749C55.8487 102.757 55.8543 102.768 55.8543 102.782V105.579C55.8543 105.593 55.8487 105.605 55.8377 105.616C55.8294 105.625 55.8184 105.629 55.8046 105.629H55.337C55.3094 105.629 55.2901 105.618 55.279 105.596L54.2072 103.825C54.2017 103.816 54.1962 103.814 54.1907 103.816C54.1852 103.816 54.1824 103.822 54.1824 103.833L54.1907 105.579C54.1907 105.593 54.1852 105.605 54.1741 105.616C54.1658 105.625 54.1548 105.629 54.141 105.629H53.6568C53.643 105.629 53.6306 105.625 53.6196 105.616C53.6113 105.605 53.6072 105.593 53.6072 105.579V102.782C53.6072 102.768 53.6113 102.757 53.6196 102.749C53.6306 102.738 53.643 102.732 53.6568 102.732H54.1245C54.152 102.732 54.1714 102.743 54.1824 102.765L55.2501 104.528C55.2556 104.536 55.2611 104.541 55.2666 104.541C55.2721 104.538 55.2749 104.531 55.2749 104.52L55.2708 102.782ZM56.4089 105.629C56.3951 105.629 56.3827 105.625 56.3717 105.616C56.3634 105.605 56.3593 105.593 56.3593 105.579V102.782C56.3593 102.768 56.3634 102.757 56.3717 102.749C56.3827 102.738 56.3951 102.732 56.4089 102.732H56.8931C56.9069 102.732 56.9179 102.738 56.9262 102.749C56.9373 102.757 56.9428 102.768 56.9428 102.782V105.579C56.9428 105.593 56.9373 105.605 56.9262 105.616C56.9179 105.625 56.9069 105.629 56.8931 105.629H56.4089ZM59.11 102.782C59.11 102.768 59.1141 102.757 59.1224 102.749C59.1334 102.738 59.1458 102.732 59.1596 102.732H59.6438C59.6576 102.732 59.6686 102.738 59.6769 102.749C59.6879 102.757 59.6935 102.768 59.6935 102.782V105.579C59.6935 105.593 59.6879 105.605 59.6769 105.616C59.6686 105.625 59.6576 105.629 59.6438 105.629H59.1762C59.1486 105.629 59.1293 105.618 59.1182 105.596L58.0464 103.825C58.0409 103.816 58.0354 103.814 58.0299 103.816C58.0244 103.816 58.0216 103.822 58.0216 103.833L58.0299 105.579C58.0299 105.593 58.0244 105.605 58.0133 105.616C58.0051 105.625 57.994 105.629 57.9802 105.629H57.496C57.4822 105.629 57.4698 105.625 57.4588 105.616C57.4505 105.605 57.4464 105.593 57.4464 105.579V102.782C57.4464 102.768 57.4505 102.757 57.4588 102.749C57.4698 102.738 57.4822 102.732 57.496 102.732H57.9637C57.9913 102.732 58.0106 102.743 58.0216 102.765L59.0893 104.528C59.0948 104.536 59.1003 104.541 59.1058 104.541C59.1113 104.538 59.1141 104.531 59.1141 104.52L59.11 102.782ZM61.2165 105.662C61.0041 105.662 60.8165 105.619 60.6537 105.534C60.4909 105.448 60.364 105.33 60.273 105.178C60.1847 105.023 60.1406 104.845 60.1406 104.644V103.717C60.1406 103.516 60.1847 103.338 60.273 103.183C60.364 103.029 60.4909 102.91 60.6537 102.827C60.8165 102.742 61.0041 102.699 61.2165 102.699C61.4262 102.699 61.611 102.74 61.771 102.823C61.9338 102.906 62.0593 103.019 62.1476 103.163C62.2387 103.303 62.2842 103.46 62.2842 103.634V103.663C62.2842 103.677 62.2787 103.689 62.2676 103.7C62.2593 103.709 62.2483 103.713 62.2345 103.713H61.7503C61.7365 103.713 61.7241 103.709 61.7131 103.7C61.7048 103.689 61.7007 103.677 61.7007 103.663V103.651C61.7007 103.524 61.6565 103.418 61.5683 103.332C61.48 103.244 61.3627 103.2 61.2165 103.2C61.0675 103.2 60.9475 103.247 60.8565 103.34C60.7682 103.431 60.7241 103.551 60.7241 103.7V104.661C60.7241 104.81 60.7723 104.931 60.8689 105.025C60.9655 105.116 61.0882 105.161 61.2372 105.161C61.3807 105.161 61.4951 105.124 61.5807 105.05C61.6662 104.972 61.709 104.866 61.709 104.731V104.545C61.709 104.531 61.7021 104.524 61.6883 104.524H61.2248C61.211 104.524 61.1986 104.52 61.1875 104.512C61.1793 104.501 61.1751 104.488 61.1751 104.474V104.094C61.1751 104.08 61.1793 104.069 61.1875 104.061C61.1986 104.049 61.211 104.044 61.2248 104.044H62.2345C62.2483 104.044 62.2593 104.049 62.2676 104.061C62.2787 104.069 62.2842 104.08 62.2842 104.094V104.64C62.2842 104.85 62.24 105.032 62.1518 105.186C62.0635 105.341 61.9379 105.459 61.7752 105.542C61.6152 105.622 61.4289 105.662 61.2165 105.662ZM63.4863 105.96C63.4726 105.96 63.4601 105.954 63.4491 105.943C63.4408 105.935 63.4367 105.924 63.4367 105.91V102.533C63.4367 102.52 63.4408 102.509 63.4491 102.5C63.4601 102.489 63.4726 102.484 63.4863 102.484H63.9705C63.9843 102.484 63.9954 102.489 64.0036 102.5C64.0147 102.509 64.0202 102.52 64.0202 102.533V105.91C64.0202 105.924 64.0147 105.935 64.0036 105.943C63.9954 105.954 63.9843 105.96 63.9705 105.96H63.4863ZM67.2287 102.732C67.2425 102.732 67.2535 102.738 67.2618 102.749C67.2728 102.757 67.2783 102.768 67.2783 102.782V103.187C67.2783 103.201 67.2728 103.214 67.2618 103.225C67.2535 103.233 67.2425 103.237 67.2287 103.237H66.4879C66.4741 103.237 66.4672 103.244 66.4672 103.258V105.579C66.4672 105.593 66.4617 105.605 66.4507 105.616C66.4424 105.625 66.4314 105.629 66.4176 105.629H65.9334C65.9196 105.629 65.9072 105.625 65.8961 105.616C65.8879 105.605 65.8837 105.593 65.8837 105.579V103.258C65.8837 103.244 65.8768 103.237 65.863 103.237H65.143C65.1292 103.237 65.1168 103.233 65.1057 103.225C65.0975 103.214 65.0933 103.201 65.0933 103.187V102.782C65.0933 102.768 65.0975 102.757 65.1057 102.749C65.1168 102.738 65.1292 102.732 65.143 102.732H67.2287ZM69.2254 105.629C69.1978 105.629 69.1799 105.615 69.1716 105.588L69.0475 105.182C69.0419 105.171 69.035 105.165 69.0268 105.165H68.0088C68.0005 105.165 67.9936 105.171 67.9881 105.182L67.8681 105.588C67.8598 105.615 67.8418 105.629 67.8143 105.629H67.2887C67.2721 105.629 67.2597 105.625 67.2515 105.616C67.2432 105.605 67.2418 105.59 67.2473 105.571L68.1412 102.774C68.1495 102.746 68.1674 102.732 68.195 102.732H68.8447C68.8723 102.732 68.8902 102.746 68.8985 102.774L69.7923 105.571C69.7951 105.576 69.7965 105.583 69.7965 105.592C69.7965 105.616 69.7813 105.629 69.751 105.629H69.2254ZM68.137 104.69C68.1343 104.706 68.1398 104.714 68.1536 104.714H68.8819C68.8985 104.714 68.904 104.706 68.8985 104.69L68.526 103.46C68.5233 103.449 68.5191 103.445 68.5136 103.448C68.5081 103.448 68.504 103.452 68.5012 103.46L68.137 104.69ZM70.2099 105.629C70.1961 105.629 70.1837 105.625 70.1726 105.616C70.1644 105.605 70.1602 105.593 70.1602 105.579V102.782C70.1602 102.768 70.1644 102.757 70.1726 102.749C70.1837 102.738 70.1961 102.732 70.2099 102.732H70.6941C70.7079 102.732 70.7189 102.738 70.7272 102.749C70.7382 102.757 70.7437 102.768 70.7437 102.782V103.94C70.7437 103.949 70.7465 103.954 70.752 103.957C70.7575 103.957 70.763 103.954 70.7686 103.949L71.7245 102.761C71.7411 102.742 71.7617 102.732 71.7866 102.732H72.3328C72.3549 102.732 72.3687 102.739 72.3742 102.753C72.3797 102.764 72.377 102.778 72.3659 102.794L71.4431 103.974C71.4348 103.985 71.4334 103.994 71.439 104.003L72.4156 105.571C72.4211 105.588 72.4239 105.597 72.4239 105.6C72.4239 105.619 72.4101 105.629 72.3825 105.629H71.8362C71.8086 105.629 71.7893 105.618 71.7783 105.596L71.0417 104.404C71.0389 104.398 71.0348 104.396 71.0293 104.396C71.0238 104.396 71.0182 104.398 71.0127 104.404L70.752 104.731C70.7465 104.742 70.7437 104.75 70.7437 104.756V105.579C70.7437 105.593 70.7382 105.605 70.7272 105.616C70.7189 105.625 70.7079 105.629 70.6941 105.629H70.2099ZM74.7619 103.183C74.7619 103.197 74.7564 103.209 74.7453 103.22C74.7371 103.229 74.726 103.233 74.7122 103.233H73.3549C73.3411 103.233 73.3342 103.24 73.3342 103.254V103.895C73.3342 103.909 73.3411 103.916 73.3549 103.916H74.2446C74.2584 103.916 74.2694 103.921 74.2777 103.932C74.2887 103.94 74.2943 103.952 74.2943 103.965V104.367C74.2943 104.381 74.2887 104.393 74.2777 104.404C74.2694 104.412 74.2584 104.416 74.2446 104.416H73.3549C73.3411 104.416 73.3342 104.423 73.3342 104.437V105.107C73.3342 105.121 73.3411 105.128 73.3549 105.128H74.7122C74.726 105.128 74.7371 105.134 74.7453 105.145C74.7564 105.153 74.7619 105.164 74.7619 105.178V105.579C74.7619 105.593 74.7564 105.605 74.7453 105.616C74.7371 105.625 74.726 105.629 74.7122 105.629H72.8004C72.7866 105.629 72.7741 105.625 72.7631 105.616C72.7548 105.605 72.7507 105.593 72.7507 105.579V102.782C72.7507 102.768 72.7548 102.757 72.7631 102.749C72.7741 102.738 72.7866 102.732 72.8004 102.732H74.7122C74.726 102.732 74.7371 102.738 74.7453 102.749C74.7564 102.757 74.7619 102.768 74.7619 102.782V103.183ZM77.0089 105.629C76.9813 105.629 76.9634 105.615 76.9551 105.588L76.831 105.182C76.8254 105.171 76.8185 105.165 76.8103 105.165H75.7922C75.784 105.165 75.7771 105.171 75.7716 105.182L75.6515 105.588C75.6433 105.615 75.6253 105.629 75.5977 105.629H75.0722C75.0556 105.629 75.0432 105.625 75.0349 105.616C75.0267 105.605 75.0253 105.59 75.0308 105.571L75.9247 102.774C75.9329 102.746 75.9509 102.732 75.9785 102.732H76.6282C76.6558 102.732 76.6737 102.746 76.682 102.774L77.5758 105.571C77.5786 105.576 77.58 105.583 77.58 105.592C77.58 105.616 77.5648 105.629 77.5345 105.629H77.0089ZM75.9205 104.69C75.9178 104.706 75.9233 104.714 75.9371 104.714H76.6654C76.682 104.714 76.6875 104.706 76.682 104.69L76.3095 103.46C76.3068 103.449 76.3026 103.445 76.2971 103.448C76.2916 103.448 76.2875 103.452 76.2847 103.46L75.9205 104.69ZM78.5084 105.629C78.478 105.629 78.4587 105.615 78.4504 105.588L77.718 102.786L77.7138 102.769C77.7138 102.745 77.729 102.732 77.7593 102.732H78.2725C78.3001 102.732 78.318 102.746 78.3263 102.774L78.7194 104.458C78.7222 104.469 78.7263 104.474 78.7318 104.474C78.7374 104.474 78.7415 104.469 78.7443 104.458L79.125 102.778C79.1333 102.747 79.1512 102.732 79.1788 102.732H79.6795C79.7099 102.732 79.7292 102.746 79.7374 102.774L80.1513 104.458C80.154 104.466 80.1582 104.472 80.1637 104.474C80.1692 104.474 80.1733 104.469 80.1761 104.458L80.5568 102.778C80.5651 102.747 80.583 102.732 80.6106 102.732H81.0989C81.1376 102.732 81.1527 102.75 81.1444 102.786L80.4658 105.588C80.4575 105.615 80.4382 105.629 80.4078 105.629H79.9154C79.8878 105.629 79.8699 105.615 79.8616 105.588L79.4395 103.796C79.4367 103.785 79.4326 103.779 79.4271 103.779C79.4216 103.779 79.4174 103.785 79.4147 103.796L79.0215 105.583C79.016 105.614 78.9981 105.629 78.9677 105.629H78.5084ZM82.9213 105.629C82.8937 105.629 82.8758 105.615 82.8675 105.588L82.7433 105.182C82.7378 105.171 82.7309 105.165 82.7226 105.165H81.7046C81.6964 105.165 81.6895 105.171 81.6839 105.182L81.5639 105.588C81.5557 105.615 81.5377 105.629 81.5101 105.629H80.9846C80.968 105.629 80.9556 105.625 80.9473 105.616C80.9391 105.605 80.9377 105.59 80.9432 105.571L81.8371 102.774C81.8453 102.746 81.8633 102.732 81.8909 102.732H82.5406C82.5682 102.732 82.5861 102.746 82.5944 102.774L83.4882 105.571C83.491 105.576 83.4924 105.583 83.4924 105.592C83.4924 105.616 83.4772 105.629 83.4468 105.629H82.9213ZM81.8329 104.69C81.8302 104.706 81.8357 104.714 81.8495 104.714H82.5778C82.5944 104.714 82.5999 104.706 82.5944 104.69L82.2219 103.46C82.2192 103.449 82.215 103.445 82.2095 103.448C82.204 103.448 82.1998 103.452 82.1971 103.46L81.8329 104.69ZM84.2745 105.625C84.2607 105.625 84.2483 105.621 84.2373 105.612C84.229 105.601 84.2249 105.589 84.2249 105.575V104.528C84.2249 104.517 84.2235 104.509 84.2207 104.503L83.3682 102.79C83.3627 102.779 83.36 102.771 83.36 102.765C83.36 102.743 83.3751 102.732 83.4055 102.732H83.9269C83.9545 102.732 83.9738 102.745 83.9849 102.769L84.5021 103.87C84.5104 103.887 84.5187 103.887 84.527 103.87L85.0442 102.769C85.0553 102.745 85.0746 102.732 85.1022 102.732H85.6319C85.6512 102.732 85.6636 102.738 85.6691 102.749C85.6774 102.757 85.6774 102.771 85.6691 102.79L84.8084 104.503C84.8056 104.509 84.8042 104.517 84.8042 104.528V105.575C84.8042 105.589 84.7987 105.601 84.7877 105.612C84.7794 105.621 84.7684 105.625 84.7546 105.625H84.2745Z" fill="white"/>
</svg>
