<svg width="60" height="60" viewBox="0 0 60 60" fill="none" xmlns="http://www.w3.org/2000/svg">
<g clip-path="url(#clip0_54_119)">
<path fill-rule="evenodd" clip-rule="evenodd" d="M31.3866 2.1098C32.1827 1.19983 32.1057 0.639447 31.0818 -0.000244141H30.5405C29.4092 0.709364 28.6033 1.69969 28.0447 2.85697C27.472 4.04661 27.6694 5.16216 28.676 6.08673C29.0914 6.46867 29.5394 6.82139 29.995 7.1595C30.3941 7.45482 30.4668 7.79397 30.2358 8.20408C30.1441 8.3661 30.048 8.52584 29.9519 8.68557C29.8226 8.90033 29.6934 9.11506 29.5752 9.33528C29.2585 9.92801 29.445 10.5625 30.0058 10.8714C30.5221 11.1552 31.1447 11.0102 31.507 10.4654C31.8356 9.97184 32.1491 9.45946 32.3888 8.92099C32.9463 7.6677 32.6947 6.60224 31.6567 5.66723C31.4103 5.44485 31.1473 5.23981 30.8844 5.03483C30.755 4.93394 30.6256 4.83306 30.4982 4.73013C29.9299 4.27202 29.8659 4.0487 30.2781 3.45075C30.5464 3.06172 30.8629 2.70351 31.1785 2.34629L31.1785 2.34624L31.1786 2.34619L31.1786 2.34614L31.1786 2.34609C31.2482 2.26739 31.3177 2.18873 31.3866 2.1098ZM22.9085 8.77662C23.7177 7.90527 23.6505 7.31358 22.6385 6.66763V6.66658H21.9887C21.7613 6.90574 21.5239 7.13821 21.2865 7.37063C20.7564 7.88969 20.2266 8.40849 19.8086 9.00099C18.905 10.2793 19.0862 11.5598 20.1795 12.7003C20.5722 13.1099 21.0306 13.4626 21.4854 13.8125L21.5983 13.8994C21.941 14.1634 22.005 14.4504 21.8011 14.8062C21.7105 14.9639 21.6169 15.12 21.5233 15.276L21.5232 15.2761L21.5231 15.2762L21.5231 15.2764L21.523 15.2765L21.5229 15.2766L21.5228 15.2768C21.3826 15.5106 21.2424 15.7444 21.1123 15.9833C20.7826 16.5886 20.9442 17.1938 21.5039 17.5205C22.0354 17.8314 22.6688 17.6864 23.0485 17.1197C23.3695 16.6408 23.6743 16.144 23.9195 15.6264C24.516 14.3679 24.2893 13.3306 23.2339 12.3779C22.8142 11.9991 22.3727 11.6401 21.9258 11.2905C21.4931 10.9524 21.4605 10.5548 21.7588 10.151C22.1135 9.67303 22.5018 9.21491 22.9085 8.77662ZM54.8716 33.0278L54.8717 33.0271C54.9138 32.7461 54.9559 32.4652 55 32.1846H54.9989V28.9558C54.9867 28.8871 54.9714 28.8183 54.9562 28.7495C54.9228 28.599 54.8894 28.4484 54.8872 28.2974C54.8557 26.0318 53.8622 24.2818 51.9336 22.9774C50.504 22.01 48.9497 21.2962 47.313 20.7546C43.2227 19.4022 39.0011 18.6926 34.6874 18.415C28.9734 18.0477 23.307 18.3743 17.6841 19.3886C14.5342 19.9574 11.5069 20.8767 8.76271 22.5182C6.91443 23.6244 5.54124 25.0791 5.24296 27.2517C4.91213 29.654 4.90237 32.0552 5.3178 34.4543C6.36125 40.4755 9.24322 45.5158 14.1752 49.3592C20.322 54.1501 27.3637 55.7738 35.1104 54.2857C40.5858 53.2349 45.1761 50.5999 48.8304 46.5343C51.8501 43.1741 53.7602 39.2786 54.5694 34.8967C54.6845 34.2766 54.778 33.6525 54.8716 33.0281L54.8716 33.0278ZM31.3184 52.2602C17.5062 52.9907 8.03381 42.5094 7.66069 31.8235L7.66177 31.8224C7.87957 31.9448 8.09534 32.0718 8.31129 32.199C8.78256 32.4765 9.25471 32.7545 9.75084 32.985C12.776 34.3927 16.0235 35.1033 19.2948 35.7044C23.2951 36.4391 27.3464 36.6436 31.4074 36.534C36.5335 36.3963 41.6173 35.911 46.5276 34.3624C48.5202 33.7342 50.4238 32.9182 52.1191 31.7045C52.1646 31.6719 52.2133 31.6444 52.2683 31.6133L52.2686 31.6132L52.2696 31.6126C52.2885 31.602 52.3081 31.5909 52.3286 31.5791L52.3567 31.5626C52.0822 41.5775 43.8756 51.5955 31.3184 52.2602ZM48.7687 30.0807C48.9912 30.1857 49.221 30.2942 49.4628 30.4053L49.4606 30.4064C46.9507 31.7724 44.367 32.506 41.7095 32.9985C37.7548 33.7321 33.7546 34.0734 29.7272 34.0577C24.2236 34.0358 18.8067 33.4024 13.5494 31.7661C12.8445 31.5462 12.1554 31.2786 11.4661 31.0108C11.1477 30.8871 10.8292 30.7633 10.509 30.6443L10.4993 30.4387C10.8388 30.2933 11.176 30.1418 11.5133 29.9903C12.246 29.6611 12.9787 29.332 13.7348 29.0654C16.7741 27.9927 19.9326 27.4062 23.1443 27.066C27.4244 26.612 31.7111 26.5953 35.9933 26.9835C39.909 27.3383 43.7704 27.9801 47.4225 29.4734C47.867 29.6551 48.3016 29.8602 48.7687 30.0807ZM51.5876 26.0318C52.3784 26.9376 52.3621 27.8831 51.6061 28.7033V28.7023C51.2214 28.5225 50.8404 28.3374 50.4604 28.1527C49.6316 27.7501 48.8069 27.3495 47.9562 27.0096C45.0471 25.8482 41.9861 25.2283 38.8786 24.8005C35.0475 24.2724 31.1937 24.1566 27.3333 24.2808C22.4154 24.4394 17.5746 25.0979 12.9268 26.7122C11.8536 27.0848 10.8211 27.5651 9.77705 28.0508L9.77703 28.0508C9.29735 28.2739 8.81523 28.4982 8.32559 28.7137C7.82447 28.1878 7.70733 27.3738 8.10106 26.6131C8.56855 25.7094 9.33867 25.0989 10.214 24.5855C12.7901 23.0744 15.6276 22.2761 18.566 21.7627C23.8396 20.8413 29.1491 20.5647 34.5008 20.9018C38.9274 21.1815 43.2519 21.9088 47.403 23.4459C48.9736 24.0272 50.4726 24.7566 51.5876 26.0318ZM39.4146 6.66754C40.4385 7.30723 40.5155 7.86761 39.7194 8.77758C39.6504 8.85652 39.581 8.93519 39.5114 9.0139L39.5114 9.01395L39.5113 9.014L39.5113 9.01405L39.5112 9.01409L39.5112 9.01414C39.1956 9.37134 38.8792 9.72953 38.6108 10.1185C38.1987 10.7165 38.2627 10.9398 38.831 11.3979C38.9584 11.5008 39.0878 11.6017 39.2171 11.7026L39.2172 11.7026L39.2173 11.7027C39.4802 11.9077 39.7431 12.1127 39.9895 12.335C41.0275 13.27 41.2791 14.3355 40.7216 15.5888C40.4819 16.1272 40.1684 16.6396 39.8398 17.1332C39.4775 17.6779 38.8549 17.823 38.3386 17.5392C37.7778 17.2303 37.5913 16.5958 37.908 16.0031C38.0261 15.7829 38.1553 15.5683 38.2845 15.3536L38.2845 15.3535L38.2846 15.3535L38.2846 15.3534L38.2846 15.3534L38.2847 15.3533L38.2849 15.3529C38.381 15.1933 38.477 15.0337 38.5685 14.8719C38.7996 14.4618 38.7269 14.1226 38.3277 13.8273C37.8722 13.4892 37.4242 13.1365 37.0088 12.7545C36.0022 11.8299 35.8048 10.7144 36.3775 9.52476C36.9361 8.36747 37.742 7.37715 38.8733 6.66754H39.4146ZM28.9757 59.9891C23.7736 59.8754 18.628 59.3745 13.6526 57.7998C11.6134 57.1538 9.61652 56.3952 7.88539 55.1398C6.53281 54.1578 5.50888 52.9379 5.472 51.2077C5.4362 49.5182 6.14341 48.1074 7.42332 46.9751C7.94179 46.516 8.65442 46.5661 9.13927 47.0106C9.63496 47.4656 9.68052 48.146 9.20218 48.6991C8.71516 49.2626 8.25852 49.8219 8.10015 50.5712C7.95481 51.2599 8.13703 51.8391 8.58609 52.3588C9.33017 53.2176 10.3075 53.7717 11.3379 54.2424C14.1732 55.5364 17.1745 56.2929 20.2604 56.7698C23.8995 57.3312 27.5646 57.6047 31.2459 57.4857C36.7691 57.3072 42.2401 56.7698 47.4455 54.7954C48.8252 54.2716 50.1517 53.6663 51.2375 52.6541C52.3286 51.6366 52.4208 50.5868 51.4815 49.4348C51.3831 49.3144 51.2761 49.2008 51.1691 49.0872C51.046 48.9567 50.923 48.8262 50.8134 48.6855C50.4109 48.1689 50.4446 47.5011 50.8719 47.0701C51.3156 46.6224 52.013 46.5222 52.538 46.9417C54.6336 48.6156 55.6488 51.4603 53.627 53.8249C52.269 55.4132 50.4402 56.3326 48.4954 57.0766C45.1796 58.3435 41.7303 59.0698 38.1965 59.4789C35.1323 59.8337 32.0627 60.0455 28.9746 59.9912L28.9757 59.9891ZM41.0502 30.5746C41.2785 30.5744 41.5066 30.5742 41.7343 30.5742V30.5731C41.8764 29.5557 41.0727 28.676 39.9685 28.5779C38.9966 28.4923 37.9412 29.3584 37.938 30.2694C37.9369 30.3707 38.0974 30.5596 38.1864 30.5606C39.1417 30.5766 40.0977 30.5756 41.0499 30.5746H41.0502ZM32.0212 32.5724H28.226C28.1457 31.5153 28.9939 30.6398 30.0818 30.6251C31.2066 30.6105 32.0689 31.4558 32.0223 32.5724H32.0212ZM18.9979 29.8977H22.7302C22.8094 28.8083 21.9254 27.9139 20.8288 27.9296C19.7463 27.9442 18.897 28.8385 18.9979 29.8977Z" fill="#FFAC96"/>
</g>
<defs>
<clipPath id="clip0_54_119">
<rect width="60" height="60" fill="white"/>
</clipPath>
</defs>
</svg>
