<svg width="154" height="16" viewBox="0 0 154 16" fill="none" xmlns="http://www.w3.org/2000/svg">
<g clip-path="url(#clip0_85_3775)">
<path d="M136.01 7.56049L119.23 7.28049L110.84 7.10049C108.04 7.04049 105.25 7.04049 102.45 7.10049L98.25 7.21049C96.85 7.27049 95.45 7.30049 94.05 7.38049C91.44 7.50049 88.82 7.67049 86.21 7.91049C86.02 5.37049 81.01 4.00049 76.26 4.00049C71.51 4.00049 66.86 5.29049 66.37 7.67049C63.83 7.44049 61.28 7.28049 58.74 7.16049C57.34 7.08049 55.94 7.05049 54.54 6.99049L50.34 6.88049C47.54 6.83049 44.75 6.83049 41.95 6.88049L33.56 7.06049L16.78 7.34049C11.19 7.47049 5.59 7.57049 0 7.72049V7.91049C5.59 8.06049 11.19 8.16049 16.78 8.29049L33.56 8.57049L41.95 8.75049C44.75 8.81049 47.54 8.81049 50.34 8.75049L54.54 8.64049C55.94 8.58049 57.34 8.55049 58.74 8.47049C61.26 8.35049 63.78 8.19049 66.29 7.96049C66.29 7.98049 66.27 8.00049 66.27 8.03049C66.27 10.6605 71.41 12.0805 76.25 12.0805C81.09 12.0805 86.01 10.7105 86.2 8.17049C88.81 8.41049 91.43 8.57049 94.04 8.70049C95.44 8.78049 96.84 8.81049 98.24 8.87049L102.44 8.98049C105.24 9.04049 108.03 9.03049 110.83 8.98049L119.22 8.80049L136 8.52049C141.59 8.39049 147.19 8.29049 152.78 8.14049V7.95049C147.19 7.80049 141.59 7.70049 136 7.57049L136.01 7.56049ZM76.26 10.5705C71.21 10.5705 67.99 9.07049 67.99 8.04049C67.99 7.01049 71.21 5.51049 76.26 5.51049C81.31 5.51049 84.53 7.01049 84.53 8.04049C84.53 9.07049 81.31 10.5705 76.26 10.5705Z" fill="#515F7B"/>
</g>
<defs>
<clipPath id="clip0_85_3775">
<rect width="154" height="16" fill="white"/>
</clipPath>
</defs>
</svg>
