<svg width="355" height="355" viewBox="0 0 355 355" fill="none" xmlns="http://www.w3.org/2000/svg">
<g opacity="0.1">
<path d="M177.5 179.213C199.242 179.213 219.641 187.596 234.928 202.813C249.25 217.048 255.241 233.212 252.762 250.856C249.422 274.491 231.003 296.008 214.546 305.062C189.946 318.575 180.788 337.717 177.5 347.856C174.229 337.7 165.054 318.575 140.471 305.062C123.997 296.008 105.577 274.491 102.255 250.856C99.7759 233.229 105.767 217.066 120.089 202.813C135.393 187.596 155.775 179.213 177.517 179.213H177.5ZM177.517 177.491C156.274 177.491 135.031 185.53 118.867 201.59C77.3625 242.852 113.479 292.186 139.645 306.56C173.472 325.151 177.517 354.999 177.517 354.999C177.517 354.999 181.545 325.151 215.389 306.56C241.555 292.186 277.672 242.869 236.167 201.59C220.02 185.53 198.777 177.491 177.517 177.491Z" fill="#FF7C57"/>
<path d="M177.5 179.213C199.518 179.213 220.158 181.915 235.617 186.838C247.271 190.556 253.554 194.808 253.279 198.802C252.797 206.032 233.069 213.933 215.062 217.1C189.809 221.541 180.685 227.996 177.5 231.405C174.315 227.996 165.192 221.541 139.938 217.1C116.819 213.038 102.1 204.431 101.721 198.802C101.446 194.791 107.729 190.556 119.384 186.838C134.842 181.915 155.483 179.213 177.5 179.213ZM177.5 177.491C156.257 177.491 135.014 180.056 118.85 185.203C77.3455 198.406 113.462 214.208 139.628 218.804C173.455 224.76 177.5 234.314 177.5 234.314C177.5 234.314 181.528 224.76 215.372 218.804C241.538 214.208 277.655 198.406 236.15 185.203C220.003 180.056 198.76 177.491 177.5 177.491Z" fill="#FF7C57"/>
<path d="M177.5 236.035C208.279 236.035 233.309 253.748 233.309 275.523C233.309 297.299 208.262 315.011 177.5 315.011C146.737 315.011 121.69 297.299 121.69 275.523C121.69 253.748 146.737 236.035 177.5 236.035ZM177.5 234.313C145.722 234.313 119.969 252.767 119.969 275.523C119.969 298.28 145.722 316.733 177.5 316.733C209.278 316.733 235.031 298.28 235.031 275.523C235.031 252.767 209.278 234.313 177.5 234.313Z" fill="#FF7C57"/>
<path d="M177.5 318.454C181.614 318.454 186.004 325.443 186.004 335.857C186.004 346.271 181.597 353.26 177.5 353.26C173.402 353.26 168.996 346.271 168.996 335.857C168.996 325.443 173.402 318.454 177.5 318.454ZM177.5 316.732C171.853 316.732 167.274 325.288 167.274 335.857C167.274 346.426 171.853 354.981 177.5 354.981C183.146 354.981 187.725 346.426 187.725 335.857C187.725 325.288 183.146 316.732 177.5 316.732Z" fill="#FF7C57"/>
<path d="M177.5 258.12C181.614 258.12 186.004 265.109 186.004 275.523C186.004 285.937 181.597 292.926 177.5 292.926C173.402 292.926 168.996 285.937 168.996 275.523C168.996 265.109 173.402 258.12 177.5 258.12ZM177.5 256.398C171.853 256.398 167.274 264.954 167.274 275.523C167.274 286.092 171.853 294.647 177.5 294.647C183.146 294.647 187.725 286.092 187.725 275.523C187.725 264.954 183.146 256.398 177.5 256.398Z" fill="#FF7C57"/>
<path d="M177.499 7.1437C180.77 17.2998 189.946 36.4243 214.528 49.9371C231.002 58.9915 249.422 80.5087 252.745 104.143C255.223 121.77 249.233 137.934 234.91 152.17C219.606 167.387 199.207 175.77 177.482 175.77C155.757 175.77 135.341 167.387 120.054 152.17C105.732 137.934 99.7411 121.77 102.22 104.143C105.56 80.5087 123.979 58.9915 140.436 49.9371C165.036 36.4243 174.194 17.2826 177.482 7.1437H177.499ZM177.482 0C177.482 0 173.454 29.8486 139.61 48.4395C113.444 62.813 77.3277 112.13 118.832 153.409C134.979 169.469 156.222 177.508 177.482 177.508C198.742 177.508 219.968 169.469 236.132 153.409C277.637 112.148 241.521 62.813 215.354 48.4395C181.528 29.8486 177.482 0 177.482 0Z" fill="#FF7C57"/>
<path d="M177.499 123.578C180.684 126.987 189.808 133.442 215.062 137.883C238.181 141.945 252.899 150.552 253.278 156.181C253.554 160.192 247.27 164.427 235.616 168.145C220.157 173.068 199.517 175.771 177.499 175.771C155.482 175.771 134.842 173.068 119.383 168.145C107.729 164.427 101.445 160.175 101.721 156.181C102.203 148.951 121.931 141.05 139.937 137.883C165.191 133.442 174.315 126.987 177.499 123.578ZM177.499 120.687C177.499 120.687 173.471 130.24 139.627 136.196C113.461 140.792 77.3449 156.594 118.849 169.797C134.997 174.944 156.239 177.509 177.499 177.509C198.759 177.509 219.985 174.944 236.15 169.797C277.654 156.594 241.538 140.792 215.372 136.196C181.545 130.24 177.499 120.687 177.499 120.687Z" fill="#FF7C57"/>
<path d="M177.5 39.988C208.28 39.988 233.31 57.7009 233.31 79.4763C233.31 101.252 208.262 118.965 177.5 118.965C146.738 118.965 121.69 101.252 121.69 79.4763C121.69 57.7009 146.738 39.988 177.5 39.988ZM177.5 38.2666C145.722 38.2666 119.969 56.7197 119.969 79.4763C119.969 102.233 145.722 120.686 177.5 120.686C209.278 120.686 235.031 102.233 235.031 79.4763C235.031 56.7197 209.278 38.2666 177.5 38.2666Z" fill="#FF7C57"/>
<path d="M177.5 1.72138C181.614 1.72138 186.004 8.71016 186.004 19.1245C186.004 29.5388 181.597 36.5276 177.5 36.5276C173.403 36.5276 168.996 29.5388 168.996 19.1245C168.996 8.71016 173.403 1.72138 177.5 1.72138ZM177.5 0C171.853 0 167.274 8.55524 167.274 19.1245C167.274 29.6937 171.853 38.2489 177.5 38.2489C183.146 38.2489 187.725 29.6937 187.725 19.1245C187.725 8.55524 183.146 0 177.5 0Z" fill="#FF7C57"/>
<path d="M177.5 62.0554C181.614 62.0554 186.004 69.0442 186.004 79.4585C186.004 89.8728 181.597 96.8616 177.5 96.8616C173.403 96.8616 168.996 89.8728 168.996 79.4585C168.996 69.0442 173.403 62.0554 177.5 62.0554ZM177.5 60.334C171.853 60.334 167.274 68.8892 167.274 79.4585C167.274 90.0277 171.853 98.583 177.5 98.583C183.146 98.583 187.725 90.0277 187.725 79.4585C187.725 68.8892 183.146 60.334 177.5 60.334Z" fill="#FF7C57"/>
<path d="M111.706 101.7C126.441 101.7 140.058 107.879 152.177 120.067C183.68 151.74 183.68 203.261 152.177 234.917C140.058 247.104 126.441 253.284 111.706 253.284C95.9886 253.284 82.5784 246.261 74.1088 240.357C64.0039 233.316 54.9662 223.659 49.9396 214.519C36.4261 189.92 17.2835 180.762 7.14406 177.475C17.3007 174.204 36.4261 165.029 49.9396 140.448C54.9662 131.307 64.0039 121.65 74.1088 114.61C82.5784 108.706 95.9886 101.682 111.706 101.682V101.7ZM111.706 99.9611C83.5252 99.9611 58.0993 122.029 48.4419 139.604C29.8501 173.429 0 177.475 0 177.475C0 177.475 29.8501 181.503 48.4419 215.345C58.0993 232.92 83.5424 254.988 111.706 254.988C125.46 254.988 139.869 249.721 153.399 236.122C185.522 203.829 185.522 151.138 153.399 118.845C139.869 105.229 125.46 99.9784 111.706 99.9784V99.9611Z" fill="#FF7C57"/>
<path d="M156.447 101.699C158.719 101.699 163.264 103.989 168.152 119.378C178.361 151.43 178.361 203.57 168.152 235.622C163.264 250.994 158.719 253.301 156.447 253.301C150.749 253.301 142.038 238.687 137.889 215.069C133.448 189.817 126.992 180.693 123.584 177.509C126.992 174.324 133.448 165.201 137.889 139.948C142.038 116.331 150.749 101.717 156.447 101.717V101.699ZM156.447 99.9953C147.426 99.9953 139.284 122.063 136.185 139.639C130.229 173.464 120.675 177.509 120.675 177.509C120.675 177.509 130.229 181.537 136.185 215.379C139.284 232.954 147.426 255.022 156.447 255.022C160.853 255.022 165.467 249.755 169.788 236.156C180.065 203.863 180.065 151.172 169.788 118.879C165.45 105.263 160.836 100.013 156.447 100.013V99.9953Z" fill="#FF7C57"/>
<path d="M79.4629 121.685C101.239 121.685 118.953 146.731 118.953 177.492C118.953 208.253 101.239 233.299 79.4629 233.299C57.6864 233.299 39.9726 208.253 39.9726 177.492C39.9726 146.731 57.6864 121.685 79.4629 121.685ZM79.4629 119.964C56.7052 119.964 38.2512 145.716 38.2512 177.492C38.2512 209.269 56.7052 235.021 79.4629 235.021C102.221 235.021 120.675 209.269 120.675 177.492C120.675 145.716 102.221 119.964 79.4629 119.964Z" fill="#FF7C57"/>
<path d="M19.1254 168.988C29.5403 168.988 36.5294 173.395 36.5294 177.492C36.5294 181.589 29.5403 185.995 19.1254 185.995C8.71059 185.995 1.72146 181.589 1.72146 177.492C1.72146 173.395 8.71059 168.988 19.1254 168.988ZM19.1254 167.267C8.55566 167.267 0 171.846 0 177.492C0 183.138 8.55566 187.717 19.1254 187.717C29.6952 187.717 38.2508 183.138 38.2508 177.492C38.2508 171.846 29.6952 167.267 19.1254 167.267Z" fill="#FF7C57"/>
<path d="M79.4621 168.988C89.8769 168.988 96.8661 173.395 96.8661 177.492C96.8661 181.589 89.8769 185.995 79.4621 185.995C69.0473 185.995 62.0581 181.589 62.0581 177.492C62.0581 173.395 69.0473 168.988 79.4621 168.988ZM79.4621 167.267C68.8923 167.267 60.3367 171.846 60.3367 177.492C60.3367 183.138 68.8923 187.717 79.4621 187.717C90.0319 187.717 98.5875 183.138 98.5875 177.492C98.5875 171.846 90.0319 167.267 79.4621 167.267Z" fill="#FF7C57"/>
<path d="M243.295 101.697C259.011 101.697 272.422 108.72 280.891 114.624C290.996 121.665 300.034 131.321 305.061 140.462C318.574 165.06 337.717 174.218 347.856 177.489C337.699 180.759 318.574 189.934 305.061 214.516C300.034 223.656 290.996 233.313 280.891 240.353C272.422 246.258 259.011 253.281 243.295 253.281C228.559 253.281 214.942 247.101 202.823 234.914C171.32 203.241 171.32 151.72 202.823 120.064C214.942 107.876 228.559 101.697 243.295 101.697ZM243.295 99.9752C229.54 99.9752 215.131 105.243 201.601 118.841C169.478 151.135 169.478 203.826 201.601 236.119C215.131 249.735 229.54 254.985 243.295 254.985C271.475 254.985 296.901 232.917 306.558 215.342C325.15 181.517 355 177.472 355 177.472C355 177.472 325.15 173.444 306.558 139.601C296.901 122.026 271.458 99.958 243.295 99.958V99.9752Z" fill="#FF7C57"/>
<path d="M198.571 101.697C204.269 101.697 212.979 116.312 217.128 139.929C221.569 165.182 228.025 174.305 231.433 177.489C228.025 180.674 221.569 189.797 217.128 215.05C212.979 238.667 204.269 253.282 198.571 253.282C196.298 253.282 191.754 250.992 186.865 235.603C176.657 203.551 176.657 151.411 186.865 119.359C191.754 103.987 196.298 101.68 198.571 101.68V101.697ZM198.571 99.9586C194.164 99.9586 189.55 105.226 185.229 118.825C174.952 151.118 174.952 203.809 185.229 236.102C189.567 249.718 194.181 254.968 198.571 254.968C207.591 254.968 215.734 232.9 218.832 215.325C224.789 181.5 234.343 177.455 234.343 177.455C234.343 177.455 224.789 173.427 218.832 139.585C215.734 122.009 207.591 99.9414 198.571 99.9414V99.9586Z" fill="#FF7C57"/>
<path d="M275.537 121.682C297.314 121.682 315.027 146.728 315.027 177.489C315.027 208.25 297.314 233.296 275.537 233.296C253.761 233.296 236.047 208.25 236.047 177.489C236.047 146.728 253.761 121.682 275.537 121.682ZM275.537 119.961C252.779 119.961 234.325 145.713 234.325 177.489C234.325 209.266 252.779 235.018 275.537 235.018C298.295 235.018 316.749 209.266 316.749 177.489C316.749 145.713 298.295 119.961 275.537 119.961Z" fill="#FF7C57"/>
<path d="M335.874 168.987C346.289 168.987 353.278 173.394 353.278 177.491C353.278 181.587 346.289 185.994 335.874 185.994C325.459 185.994 318.47 181.587 318.47 177.491C318.47 173.394 325.459 168.987 335.874 168.987ZM335.874 167.266C325.305 167.266 316.749 171.844 316.749 177.491C316.749 183.137 325.305 187.716 335.874 187.716C346.444 187.716 355 183.137 355 177.491C355 171.844 346.444 167.266 335.874 167.266Z" fill="#FF7C57"/>
<path d="M275.537 168.987C285.952 168.987 292.941 173.394 292.941 177.491C292.941 181.587 285.952 185.994 275.537 185.994C265.122 185.994 258.133 181.587 258.133 177.491C258.133 173.394 265.122 168.987 275.537 168.987ZM275.537 167.266C264.967 167.266 256.412 171.844 256.412 177.491C256.412 183.137 264.967 187.716 275.537 187.716C286.107 187.716 294.663 183.137 294.663 177.491C294.663 171.844 286.107 167.266 275.537 167.266Z" fill="#FF7C57"/>
</g>
</svg>
