<svg width="60" height="54" viewBox="0 0 60 54" fill="none" xmlns="http://www.w3.org/2000/svg">
<path fill-rule="evenodd" clip-rule="evenodd" d="M1.6498 44.0176C0.954657 43.9613 0.398067 44.1621 0.00235076 44.7504L0 44.7515V46.2745C0.033794 46.4093 0.0650764 46.5448 0.0963527 46.6804C0.16071 46.9592 0.225042 47.238 0.311174 47.5098C1.43374 51.0419 3.80686 53.1508 7.47399 53.7825C7.53537 53.7929 7.5935 53.8217 7.65169 53.8505C7.67922 53.8641 7.70676 53.8777 7.73467 53.8894H52.2686C52.3131 53.8765 52.3574 53.862 52.4016 53.8476C52.5022 53.8147 52.6027 53.782 52.7054 53.7673C56.6825 53.2142 59.9563 49.5119 59.9997 45.516C60.0115 44.4227 59.6322 44.0317 58.5402 44.0258C57.9369 44.0235 57.3337 44.0243 56.7068 44.025C56.3843 44.0254 56.0556 44.0258 55.7173 44.0258V43.2262C55.7173 41.7981 55.7174 40.37 55.7175 38.9419C55.7178 32.5011 55.7182 26.0599 55.7114 19.6194C55.7114 19.1157 55.6974 18.5967 55.5799 18.1105C55.0915 16.092 53.471 14.8685 51.2846 14.8638C47.7129 14.8562 44.1412 14.8577 40.5696 14.8591C39.1414 14.8597 37.7132 14.8603 36.285 14.8603H35.6062C36.7781 13.0766 37.0729 11.2847 36.3765 9.39656C35.6744 7.49195 34.257 6.3236 32.3454 5.76232C32.4934 4.65501 33.3224 3.46082 34.4672 2.94181C35.0475 2.67825 35.6944 2.55141 36.3335 2.4261C36.4575 2.40179 36.5813 2.37753 36.7041 2.35234C37.3241 2.22552 37.734 1.82159 37.7445 1.21217C37.7551 0.583952 37.3277 0.0825602 36.6983 0.0144547C36.467 -0.0102042 36.2286 -0.000815509 35.9961 0.0238434C33.0018 0.34206 30.7156 2.33356 29.9805 5.27618C29.9018 5.59323 29.7621 5.75057 29.4415 5.84451C25.7039 6.93772 24.0788 11.0193 26.0327 14.373C26.0891 14.4694 26.1398 14.5698 26.1947 14.6786C26.2187 14.7261 26.2435 14.7752 26.2699 14.8262H12.5549C12.5368 14.7281 12.519 14.6346 12.5017 14.5437C12.4731 14.3931 12.4459 14.25 12.421 14.1064C12.0547 12.0174 10.1501 10.37 8.0341 10.3125C5.30988 10.2373 3.17043 12.311 3.16925 15.0493C3.16674 21.7723 3.16721 28.4954 3.16769 35.2184C3.16788 37.9068 3.16808 40.5953 3.16808 43.2837V44.0247C2.99248 44.0247 2.82333 44.0279 2.65881 44.031C2.30733 44.0377 1.97693 44.044 1.6498 44.0176ZM53.164 23.6207C53.2104 23.6275 53.2578 23.6345 53.3066 23.64V44.0247H52.5258H24.2843C24.2411 44.0247 24.1978 44.0245 24.1544 44.0243C23.9634 44.0234 23.7716 44.0225 23.5821 44.0388C22.9586 44.0916 22.53 44.5343 22.5065 45.1355C22.4819 45.7602 22.8964 46.2733 23.5211 46.3649C23.6817 46.3881 23.8458 46.3856 24.0096 46.383C24.0613 46.3822 24.113 46.3814 24.1645 46.3814H56.7412H57.4963C57.1158 48.9201 54.7897 51.157 52.2745 51.4306C51.732 51.4905 51.1848 51.5198 50.6388 51.5198C36.7723 51.5245 22.9057 51.5245 9.03924 51.5221C6.07195 51.521 3.73876 49.9863 2.76767 47.4076C2.69014 47.2011 2.63019 46.9877 2.56305 46.7487C2.53055 46.6329 2.49636 46.5112 2.45767 46.3814H3.13168H12.6817C12.7257 46.3814 12.7698 46.382 12.8139 46.3825C12.9462 46.3843 13.0786 46.3861 13.2089 46.372C13.863 46.3003 14.3209 45.7755 14.2951 45.1414C14.2704 44.519 13.8231 44.0458 13.162 44.0376C11.8722 44.0216 10.5824 44.0225 9.29261 44.0234C8.78583 44.0238 8.27904 44.0242 7.77225 44.0235H5.55999V23.6212C5.61646 23.6179 5.67235 23.6137 5.72781 23.6096C5.8476 23.6006 5.96534 23.5919 6.08253 23.5919C7.07495 23.5916 8.06731 23.591 9.05964 23.5905C12.2859 23.5888 15.5118 23.587 18.7384 23.5942C20.4492 23.5977 21.6188 24.4667 21.9758 25.9838C22.045 26.2781 22.0462 26.5918 22.0473 26.8969L22.0474 26.9126C22.0504 27.4649 22.0483 28.0172 22.0462 28.5695C22.0425 29.5013 22.0389 30.4329 22.0603 31.3641C22.1073 33.4108 23.7077 35.1686 25.6523 35.3635C27.8046 35.5796 29.7128 34.302 30.1625 32.2295C30.2897 31.642 30.2928 31.0272 30.2958 30.4134C30.2969 30.1833 30.2981 29.9532 30.3058 29.7249C30.3149 29.4564 30.3129 29.1874 30.311 28.9183C30.3086 28.6014 30.3063 28.2845 30.3222 27.9682C30.3833 26.7435 31.3344 25.8628 32.5462 25.8781C33.7357 25.8933 34.6927 26.8351 34.6986 28.0493C34.7042 29.3807 34.7024 30.7124 34.7006 32.0441C34.6983 33.739 34.696 35.4339 34.7091 37.1284C34.7314 39.9665 37.64 41.776 40.1423 40.5043C41.4199 39.855 42.1714 38.7805 42.1866 37.3268C42.2077 35.2662 42.2063 33.205 42.205 31.144C42.2041 29.8661 42.2033 28.5883 42.2078 27.3107C42.2136 25.5141 43.2035 24.1578 44.8228 23.7257C45.1586 23.6365 45.5168 23.6001 45.8643 23.5989C47.9155 23.5886 49.9667 23.5909 52.0179 23.5933C52.3105 23.5936 52.6031 23.5939 52.8956 23.5942C52.9838 23.5942 53.072 23.6072 53.164 23.6207ZM5.51537 21.2152H6.27627C7.52409 21.2152 8.77191 21.2141 10.0197 21.2129C12.9698 21.2102 15.9198 21.2075 18.8699 21.2199C21.93 21.2328 24.2467 23.4052 24.3911 26.4312C24.4368 27.3893 24.4309 28.3497 24.425 29.3101C24.4212 29.9315 24.4174 30.553 24.4276 31.1739C24.4463 32.2706 25.2037 33.0456 26.1924 33.0362C27.1976 33.0268 27.908 32.2554 27.9174 31.1469C27.9205 30.748 27.9181 30.349 27.9157 29.95C27.9119 29.3141 27.908 28.6783 27.9268 28.0434C27.9949 25.7102 29.7539 23.7433 31.9156 23.5508C34.3933 23.3288 36.4329 24.7485 36.9554 27.1122C37.0646 27.6054 37.0645 28.1275 37.0644 28.642C37.0644 28.7143 37.0644 28.7864 37.0646 28.8583C37.0738 31.1599 37.0715 33.4616 37.0692 35.7632C37.0688 36.1165 37.0685 36.4698 37.0682 36.8231C37.0682 37.3903 37.1504 37.921 37.6529 38.2768C38.1038 38.5962 38.5947 38.6526 39.0879 38.3931C39.621 38.1124 39.8581 37.6509 39.857 37.0497C39.8534 33.8488 39.8546 30.6467 39.857 27.4457C39.8593 23.7222 42.3686 21.2211 46.1086 21.2176C47.5662 21.216 49.0244 21.2165 50.4824 21.217C51.2114 21.2173 51.9403 21.2176 52.669 21.2176H53.3442C53.3442 21.0199 53.3402 20.8292 53.3362 20.6435C53.328 20.2533 53.3202 19.8852 53.3513 19.5208C53.491 17.8968 52.3214 17.1888 51.0427 17.1911C40.668 17.2178 30.2926 17.2143 19.917 17.2108C17.5229 17.21 15.1287 17.2092 12.7345 17.2087C12.7113 17.2087 12.688 17.2088 12.6646 17.2088C12.3951 17.2093 12.1184 17.2099 11.8644 17.1418C10.6468 16.8142 10.2135 15.9276 10.1113 14.7428C10.0056 13.5263 8.99462 12.6562 7.82626 12.6645C6.61915 12.6727 5.55764 13.6285 5.52828 14.8744C5.49379 16.3329 5.50123 17.792 5.50881 19.2807C5.51207 19.9193 5.51535 20.5634 5.51537 21.2152ZM30.9751 7.97104C32.8362 7.97221 34.3545 9.49167 34.3639 11.3622C34.3733 13.2844 32.8855 14.7804 30.968 14.7804C29.0939 14.7793 27.5733 13.2809 27.5534 11.4139C27.5334 9.55391 29.108 7.97104 30.9751 7.97104ZM18.427 44.0338C17.7471 44.0209 17.2375 44.5093 17.2316 45.1798H17.2305C17.2246 45.8397 17.7471 46.3775 18.3953 46.3775C19.0376 46.3775 19.5731 45.8315 19.5672 45.1822C19.5613 44.5399 19.0717 44.0467 18.427 44.0338Z" fill="#FFAC96"/>
</svg>
