<svg width="96" height="112" viewBox="0 0 96 112" fill="none" xmlns="http://www.w3.org/2000/svg">
<g clip-path="url(#clip0_1_5057)">
<path d="M92.9679 66.8469C91.4208 64.1443 89.2407 62.0522 86.4199 60.5529C83.5991 59.0595 80.3037 58.3132 76.5354 58.3132H70.2355C69.2695 60.719 67.9833 63.9137 66.6207 67.2854L66.4253 67.7718C65.3645 70.3972 64.2384 73.1886 63.1307 75.9382V80.685C63.1307 81.5386 63.2079 82.3738 63.368 83.1855C63.6883 84.9104 64.3399 86.5103 65.2581 87.9324C65.7737 88.7382 66.3783 89.4853 67.0533 90.1603C69.4775 92.5904 72.8316 94.0897 76.5354 94.0897C80.2391 94.0897 83.558 93.3434 86.3964 91.85C89.2289 90.3507 91.4217 88.2468 92.9687 85.5267C94.5158 82.8124 95.2856 79.7014 95.2856 76.1989C95.2856 72.6964 94.515 69.5494 92.9687 66.8477L92.9679 66.8469ZM83.6704 83.8429C82.7522 84.7435 81.6495 85.4193 80.3691 85.8696C79.0828 86.3199 77.6196 86.5455 75.9719 86.5455C73.6902 86.5455 71.8413 84.6965 71.8413 82.4208V65.7509H75.9719C79.2664 65.7509 81.8331 66.6691 83.6704 68.5063C85.5017 70.3377 86.4199 72.9035 86.4199 76.1981C86.4199 79.4927 85.5017 82.0476 83.6704 83.8429Z" fill="#E76F51"/>
<path d="M52.7062 67.0248V72.3285H39.1473V50.1999C38.78 49.5601 38.3826 48.9136 37.9625 48.2562C37.4115 47.3908 36.6057 46.1817 35.5802 44.6824H30.4367V89.7329C30.4367 90.9362 30.923 92.0262 31.7113 92.8144C32.4995 93.6027 33.5896 94.0882 34.7928 94.0882C37.1986 94.0882 39.1481 92.1386 39.1481 89.7329V79.362H52.707V107.511C52.707 107.89 52.7548 108.252 52.8496 108.601C53.0391 109.366 53.4424 110.053 53.9816 110.593C54.0587 110.67 54.1359 110.741 54.2189 110.812C54.6164 110.835 55.2562 110.794 56.0326 110.408C57.9939 109.436 59.6592 106.948 60.9749 103.018C61.099 102.651 61.2474 102.183 61.4193 101.614V58.3117C56.607 58.3117 52.7079 62.2109 52.7079 67.0231L52.7062 67.0248Z" fill="#E76F51"/>
<path d="M32.5791 17.5334C28.2079 17.9309 23.9759 21.0586 22.6049 24.7825C22.5747 24.8638 22.5462 24.9452 22.5185 25.0273C21.2607 24.4756 19.743 24.11 18.4886 24.2165C18.4626 24.219 18.4358 24.2215 18.4098 24.224C14.9416 24.5695 11.9489 26.2868 10.0916 28.9608C8.09257 31.8294 7.67163 35.4326 8.77848 38.5686C9.44511 40.462 10.6023 42.0594 12.1871 43.3449C12.2047 43.3583 12.2215 43.3725 12.2391 43.3851C15.3911 45.7355 18.8181 46.0617 20.1522 46.1103C20.1539 46.1321 20.1522 46.1531 20.1547 46.1749C20.3006 48.0272 20.4465 49.8795 20.5924 51.7318C20.6327 52.2408 20.8985 52.702 21.3127 52.9837C21.6146 53.19 21.9718 53.2839 22.3257 53.2579C22.454 53.2478 22.5848 53.2227 22.7105 53.1799C26.12 52.0345 29.9327 51.419 33.9577 51.4115C40.8243 51.3964 45.8395 53.169 45.8773 53.174C46.0072 53.2185 46.1406 53.2462 46.2747 53.2562C46.6269 53.2822 46.9799 53.19 47.2826 52.9862C47.6985 52.7045 47.9685 52.2424 48.0088 51.7309C48.1547 49.877 48.3006 48.0222 48.4465 46.1682C48.4482 46.1497 48.4482 46.1313 48.4482 46.112C49.7621 46.0676 53.2152 45.7523 56.3898 43.386C56.4066 43.3725 56.425 43.3591 56.4418 43.3457C58.0275 42.0611 59.1838 40.4637 59.8504 38.5695C60.9573 35.4334 60.5372 31.8303 58.5373 28.9617C56.6808 26.2876 53.6881 24.5703 50.22 24.2249C50.194 24.2223 50.1672 24.2198 50.1412 24.2173C48.8876 24.1108 47.3682 24.4764 46.1104 25.0282C46.0835 24.946 46.055 24.8647 46.024 24.7833C44.6539 21.0594 40.421 17.9326 36.0498 17.5351" fill="#E76F51"/>
<path d="M32.7812 19.1816C29.2854 19.4978 25.6068 22.0192 24.3733 25.2869C23.7503 26.9179 24.0555 28.6284 24.9519 30.0866C23.6027 29.1366 23.1919 28.3819 19.9376 27.4587C21.2255 27.0872 22.9982 27.2642 22.9982 27.2658C21.9173 26.4357 19.8638 25.7406 18.5733 25.8731C11.9037 26.5539 8.63762 32.9058 10.4522 38.0149C11.0308 39.7062 12.0471 41.0369 13.304 42.0649C16.7319 44.6417 20.6293 44.4472 20.6411 44.4522C20.6151 44.4447 20.5899 44.4363 20.5673 44.4271C19.556 43.9944 17.6073 43.1944 16.7973 42.4045C21.1912 44.0657 25.362 42.5404 25.3821 42.5412C23.4845 40.1556 22.8741 36.7973 22.8791 36.7957C24.2887 39.38 26.7774 41.379 29.6032 41.9392C28.3454 40.346 27.3887 38.8517 27.0776 37.3566C27.0835 37.3684 29.5353 40.8533 34.3157 41.8998C39.0953 40.8524 41.548 37.3675 41.5539 37.3566C41.2419 38.8517 40.2868 40.346 39.0282 41.9392C41.8532 41.379 44.3436 39.38 45.7523 36.7957C45.7565 36.7982 45.1469 40.1565 43.2493 42.5412C43.2695 42.5404 47.4394 44.0657 51.8341 42.4045C51.0241 43.1953 49.0746 43.9952 48.0641 44.4271C48.0415 44.4363 48.0164 44.4447 47.9904 44.4522C48.0029 44.4472 51.8987 44.6409 55.3274 42.0649C56.5852 41.0369 57.5998 39.7062 58.1793 38.0149C59.993 32.9066 56.7278 26.5539 50.0573 25.8731C48.766 25.7406 46.7141 26.4365 45.6324 27.2658C45.6324 27.2642 47.4042 27.0872 48.693 27.4587C45.4396 28.3819 45.0287 29.1366 43.6787 30.0866C44.5742 28.6276 44.8811 26.917 44.2573 25.2869C43.0229 22.0192 39.3452 19.4986 35.8494 19.1816" fill="white"/>
<path d="M46.1372 45.1013C39.4617 43.0235 32.8441 43.2415 28.2054 43.8922C27.9748 45.5944 28.3622 49.3501 36.1051 49.8071C42.1836 50.1106 46.4659 51.5957 46.3921 51.6007C46.5204 49.7451 46.6487 47.8894 46.7778 46.0337C46.8072 45.6162 46.5431 45.2263 46.1372 45.1013Z" fill="white"/>
<path d="M58.0434 31.7866C58.0183 31.8965 55.3769 43.2409 43.2485 42.5407C43.2686 42.5398 47.4386 44.0651 51.8333 42.404C51.0233 43.1947 49.0737 43.9947 48.0641 44.4265C48.0415 44.4357 48.0163 44.4441 47.9904 44.4517C48.0029 44.4466 51.8987 44.6403 55.3274 42.0644C56.5852 41.0364 57.5998 39.7056 58.1793 38.0143C58.8979 35.9901 58.8165 33.7714 58.0442 31.7866H58.0434Z" fill="#E75329"/>
<path d="M10.9897 30.8926C9.85683 33.087 9.62205 35.6797 10.4513 38.0142C11.0299 39.7055 12.0462 41.0362 13.3032 42.0642C16.731 44.641 20.6285 44.4465 20.6402 44.4515C20.6142 44.444 20.5891 44.4356 20.5673 44.4263C19.556 43.9937 17.6073 43.1937 16.7973 42.4038C21.1912 44.0649 25.362 42.5388 25.3821 42.5405C25.3821 42.5405 11.1574 41.9401 10.9897 30.8926Z" fill="#E75329"/>
<path d="M46.1372 45.1013C39.4617 43.0235 32.8441 43.2415 28.2062 43.8922C28.2062 43.8922 29.1605 48.4889 37.8945 48.3355C41.0918 48.2793 44.0745 48.5829 46.5733 48.9895C46.6412 48.0043 46.7099 47.019 46.7779 46.0337C46.8072 45.6162 46.5431 45.2263 46.1372 45.1013Z" fill="#E75329"/>
<path d="M32.8902 20.1504C29.6426 20.4296 26.2256 22.6567 25.0794 25.5429C24.7909 26.2607 24.7171 26.9961 24.8178 27.7122C24.8639 27.3835 24.9486 27.0556 25.0794 26.7303C26.2256 23.8441 29.6426 21.6178 32.8902 21.3377" fill="#E75329"/>
<path d="M35.7395 21.3386C38.9871 21.6178 42.4041 23.8449 43.5504 26.7311C43.6812 27.0556 43.7659 27.3843 43.812 27.7122C43.9135 26.9961 43.8388 26.2607 43.5504 25.5429C42.4041 22.6567 38.9871 20.4305 35.7395 20.1504" fill="#E75329"/>
<path d="M8.77597 0.417568C8.46907 0.162657 7.93912 0.373965 7.88797 0.768909C7.86701 0.929906 7.91899 1.0909 8.02968 1.20913C8.83885 2.07784 11.4215 4.96656 13.6277 7.87204C16.0225 11.0257 17.1478 13.1111 16.8828 13.9035L16.7922 14.1727L16.5197 14.0914C15.8783 13.8993 14.4553 12.4764 12.4034 9.97673C10.5075 7.6666 8.40198 4.83742 7.00836 2.96584L6.36186 2.09881C6.19331 1.87241 5.87384 1.81455 5.63402 1.96632C5.47638 2.0661 5.39001 2.19104 5.35982 2.33611C5.32964 2.48033 5.35898 2.62792 5.442 2.75034C5.9057 3.43625 6.51363 4.2949 7.15762 5.2047C8.70134 7.38402 10.6216 10.0966 11.9582 12.3942C13.3769 14.8335 13.8725 16.3571 13.4298 16.9231L13.3635 17.0078L13.2596 17.0296C12.6063 17.1679 11.5221 16.1592 10.0354 14.0293C8.62419 12.006 7.05364 9.26063 5.79166 7.05532C5.02357 5.712 4.36533 4.56155 3.84713 3.74399C3.76998 3.62073 3.6484 3.53604 3.50585 3.50501C3.36414 3.47399 3.21823 3.49914 3.09581 3.57796L3.04214 3.61234C2.80652 3.7616 2.72099 4.06347 2.84509 4.31251C3.2828 5.19883 3.88402 6.3518 4.51962 7.57185C5.67762 9.79394 6.99075 12.312 7.9735 14.4536C8.96883 16.6212 9.45685 18.0601 9.38389 18.6152L9.34616 18.9037L9.05687 18.8684C8.22589 18.7661 6.81969 16.8593 4.99003 13.3535C3.30376 10.1252 1.78939 6.55388 1.34749 5.44955C1.28711 5.29945 1.16385 5.18457 1.00956 5.13426C0.854436 5.08395 0.686732 5.10575 0.549214 5.19296C0.349645 5.31957 0.254054 5.55855 0.31275 5.78747C0.700148 7.30017 2.86941 15.1848 7.4729 21.8787C7.51063 21.9383 10.7675 26.9132 16.2891 24.7892L16.5264 24.6978L16.6505 24.9192C17.9603 27.2537 19.8277 30.6111 21.7999 34.1564C27.0776 43.646 33.6457 55.4557 35.3957 58.227C37.1684 61.0336 38.9335 62.6502 40.6415 63.0343C41.7668 63.2875 42.4267 62.88 42.4544 62.8624C42.4821 62.8448 43.1319 62.4213 43.3827 61.2952C43.7625 59.5871 43.0514 57.3013 41.2679 54.5015C39.5171 51.7528 31.6752 40.8369 25.3745 32.0668L25.0769 31.6517C22.7877 28.4662 20.6318 25.4643 19.1242 23.3495L18.9766 23.1424L19.1602 22.9671C23.4384 18.8726 20.3308 13.8264 20.299 13.7761C16.1885 6.73584 9.97925 1.41289 8.77597 0.417568Z" fill="white"/>
<path d="M42.0238 55.1816C41.8661 54.9066 41.6951 54.6282 41.514 54.3456C41.2767 53.9733 40.9303 53.4534 40.4893 52.8086C37.6576 48.6621 31.0031 39.3998 25.5107 31.7566C23.1478 28.4688 20.9131 25.357 19.361 23.1802C23.8362 18.8987 20.5718 13.6579 20.5458 13.6202C16.417 6.54138 10.1725 1.1916 8.965 0.192918C8.68493 -0.0393526 8.28999 -0.0645083 7.98141 0.131706C7.77011 0.264193 7.63007 0.483047 7.59653 0.732927C7.56634 0.980292 7.64516 1.22766 7.81539 1.40794C8.62121 2.27413 11.1972 5.15446 13.3949 8.04988C16.7079 12.4136 16.6878 13.5623 16.6039 13.8097C16.3516 13.7359 15.4342 13.206 12.6302 9.79066C10.7293 7.4713 8.61617 4.63458 7.2192 2.7588L6.59701 1.92279C6.33707 1.57397 5.84486 1.48424 5.47842 1.71903L5.44488 1.73916C5.25118 1.86158 5.11869 2.05276 5.07258 2.27665C5.02646 2.49802 5.07006 2.72526 5.19752 2.91393C5.66122 3.60235 6.27334 4.46352 6.91817 5.37332C8.4577 7.55012 10.3771 10.2594 11.7045 12.5402C13.5777 15.7643 13.3379 16.5617 13.1979 16.7403C12.9891 16.7865 12.2294 16.6615 10.2748 13.86C8.87025 11.8442 7.30053 9.10139 6.03856 6.89691C5.27382 5.56115 4.6139 4.4065 4.09402 3.58642C3.97411 3.39524 3.78796 3.26527 3.5691 3.21663C3.35025 3.168 3.12552 3.20909 2.93686 3.329L2.88319 3.36254C2.52095 3.59229 2.39098 4.056 2.57965 4.44088C3.01819 5.32804 3.61942 6.4852 4.25669 7.70609C5.41637 9.92817 6.72866 12.4471 7.7047 14.5753C9.04801 17.5009 9.11929 18.3469 9.09162 18.5767C8.82916 18.5432 7.78184 18.0694 5.24783 13.2169C3.56659 9.99526 2.05725 6.43992 1.61954 5.34145C1.52562 5.10918 1.33695 4.93141 1.09965 4.85427C0.859835 4.77796 0.602408 4.81067 0.391101 4.94567C0.0825241 5.13937 -0.0625405 5.50664 0.026343 5.8605C0.416256 7.3799 2.59809 15.3081 7.22926 22.0448C7.2628 22.0985 10.611 27.2848 16.3943 25.0627C17.7016 27.3971 19.5698 30.7537 21.5429 34.299C26.8214 43.7928 33.3945 55.6084 35.1454 58.3814C36.1902 60.0333 37.2375 61.2844 38.2781 62.1279C39.0504 62.7526 39.8176 63.1501 40.5773 63.3203C41.1886 63.4578 41.6808 63.4176 42.0246 63.3354C42.3684 63.2541 42.5697 63.1342 42.6107 63.1082C42.6896 63.057 43.3956 62.5807 43.6681 61.3573C44.0279 59.7465 43.4744 57.672 42.0246 55.1791L42.0238 55.1816ZM42.1563 62.3812C42.1563 62.3812 42.1538 62.3837 42.1487 62.3862C42.1361 62.3937 42.0951 62.4139 42.0238 62.4399C42.0062 62.4449 41.9852 62.4524 41.9651 62.4575C41.9424 62.465 41.9215 62.4726 41.8963 62.4776C41.8502 62.4902 41.7965 62.5027 41.7362 62.5111C41.7026 62.5187 41.6674 62.5237 41.6288 62.5262C41.6238 62.5287 41.6188 62.5287 41.6137 62.5287C41.5701 62.5338 41.5249 62.5363 41.4762 62.5388C41.3412 62.5464 41.1911 62.5413 41.0201 62.5162C40.9865 62.5136 40.9538 62.5086 40.9203 62.5011C40.6553 62.4575 40.3543 62.3686 40.0155 62.2101C39.9744 62.19 39.9317 62.169 39.8881 62.1489C39.847 62.1288 39.8042 62.1053 39.7631 62.0852C39.717 62.06 39.6692 62.034 39.6206 62.0038C39.5719 61.9762 39.5208 61.9451 39.4705 61.9149C39.3707 61.8537 39.2667 61.785 39.1594 61.7087C39.1057 61.6701 39.0521 61.6324 38.9992 61.5913C38.8843 61.5049 38.7644 61.4102 38.6454 61.3087C38.5255 61.2039 38.403 61.0949 38.2781 60.975C38.268 60.9674 38.2605 60.9599 38.2504 60.9473C38.1842 60.8861 38.1179 60.8198 38.0517 60.7536C37.5444 60.2413 36.9994 59.5864 36.4233 58.7554C36.3646 58.669 36.3034 58.5818 36.2447 58.4929C36.1197 58.3118 35.9973 58.1231 35.8724 57.9269C34.1316 55.1715 27.5685 43.366 22.2925 33.8823C20.2255 30.1659 18.2734 26.6567 16.9553 24.3147C16.848 24.1235 16.614 24.0422 16.4128 24.1286C11.094 26.4203 8.0812 21.7866 7.9462 21.5744C7.82629 21.4009 7.70889 21.2256 7.59485 21.0495C7.53616 20.9631 7.47998 20.8759 7.4238 20.7896C6.97267 20.0986 6.5467 19.4001 6.14924 18.7C6.03939 18.5088 5.9329 18.3201 5.82809 18.1289C5.70063 17.8967 5.57569 17.6652 5.45327 17.433C5.33336 17.2116 5.21848 16.9894 5.10696 16.768C4.74974 16.0695 4.41853 15.3761 4.11079 14.701C4.00597 14.4772 3.90703 14.255 3.81228 14.0361C3.32761 12.9376 2.90751 11.8878 2.54527 10.9193C1.68913 8.62511 1.16422 6.803 0.934464 5.93932C1.48789 7.28766 2.91254 10.5982 4.4898 13.616C6.20039 16.8913 7.33659 18.3947 8.13989 19.032C8.1575 19.0446 8.17344 19.0572 8.19104 19.0706C8.24974 19.1142 8.30341 19.1519 8.35959 19.188C8.43338 19.2366 8.50717 19.2769 8.57593 19.3104C8.60611 19.3255 8.63965 19.3381 8.66984 19.3515C8.70338 19.3666 8.7386 19.3792 8.77214 19.3901C8.79981 19.3976 8.82832 19.4052 8.85599 19.4127C9.07736 19.4689 9.26352 19.4463 9.42703 19.3926C9.62827 19.3263 9.78675 19.1762 9.87061 18.9666C10.3704 17.7457 8.17595 13.367 5.02059 7.31366C4.83947 6.96986 4.68686 6.61517 4.54682 6.26383C4.54682 6.26383 4.54598 6.26215 4.54431 6.2588C4.198 5.3817 3.9456 4.5306 3.63702 3.90674L3.65966 3.89164C4.16949 4.69411 4.81934 5.83367 5.57401 7.15182C9.30293 13.6713 11.8059 18.3939 13.623 17.5026C13.6507 17.4875 13.6767 17.4724 13.6993 17.4514C15.3688 16.1207 12.086 11.1893 7.61833 4.88362C6.98357 3.98388 6.67499 2.94663 6.21884 2.26826L6.82761 3.08666C12.0248 10.0699 15.2279 14.6021 16.6199 14.6834C16.8471 14.696 17.0534 14.6197 17.1985 14.4621C17.7519 13.8785 17.8969 12.5637 14.0792 7.53503C12.0181 4.82157 9.64253 1.64524 8.65894 0.570254C10.2647 1.92615 15.9633 7.46962 19.8121 14.0654C19.9396 14.2642 22.8476 18.9641 18.5099 22.7995C18.3439 22.9446 18.3162 23.1894 18.4437 23.368C19.9983 25.5549 22.3378 28.8092 24.8131 32.2555C30.1017 39.6161 36.4686 48.4784 39.4504 52.8086C40.0415 53.6672 40.5002 54.3481 40.7912 54.8043C41.3136 55.6252 41.7186 56.3664 42.0246 57.0322C43.9155 61.1175 42.1672 62.3745 42.1571 62.382L42.1563 62.3812Z" fill="#E76F51"/>
<path d="M17.8371 22.2872C17.8371 22.2872 22.3525 18.2681 18.4064 13.5481C18.4064 13.5481 19.5761 17.6082 17.8371 22.2872Z" fill="#0E2E4B"/>
<path d="M10.0857 16.1861C8.46237 13.403 4.82821 6.78369 3.46644 4.29663C3.88906 5.14186 4.43829 6.19672 5.01855 7.31028C8.17307 13.3636 10.3675 17.7432 9.87025 18.9632C9.78556 19.1712 9.62707 19.323 9.42499 19.3892C9.14995 19.4789 8.81203 19.4798 8.35671 19.1855C8.30305 19.1502 8.2477 19.1125 8.18985 19.0689C6.00298 17.5017 4.00645 14.0319 2.54491 10.9184C3.70123 14.0143 5.46548 17.9654 7.94584 21.5727C8.08084 21.7857 11.0937 26.4186 16.4116 24.1285C16.6128 24.0413 16.8476 24.121 16.9549 24.3122C18.2714 26.6542 20.2235 30.1651 22.2905 33.8814C27.5656 43.366 34.1304 55.1698 35.8712 57.9244C39.5204 63.701 42.0343 62.4465 42.1492 62.3845L17.0354 22.7953C13.1673 23.1919 10.0857 16.1861 10.0857 16.1861Z" fill="#E76F51"/>
<path d="M82.6096 54.6807C80.8378 55.8655 78.8229 56.6244 76.7366 56.808C76.0549 56.8734 75.3556 56.8793 74.6621 56.808C74.5321 56.8022 74.3955 56.7904 74.2646 56.7728L73.9502 56.7317L73.9267 56.8089L73.8613 57.0344C72.9666 60.2586 71.6979 64.8864 70.3529 69.7758C68.2549 77.3913 65.8668 86.0842 63.9768 92.7874C62.9161 96.5272 62.0214 99.6499 61.4168 101.617C61.2449 102.186 61.0965 102.654 60.9724 103.022C59.6567 106.951 57.9914 109.44 56.0301 110.411C55.2536 110.796 54.6138 110.838 54.2164 110.815C53.9556 110.797 53.7954 110.744 53.7837 110.738C53.7544 110.726 53.3217 110.577 52.8471 110.074C52.6215 109.836 52.3909 109.523 52.1897 109.108C51.9348 108.598 51.757 108.012 51.6622 107.359C51.5499 106.589 51.5499 105.723 51.6622 104.763C51.8048 103.465 52.1545 101.996 52.7054 100.366C52.7171 100.325 52.7288 100.277 52.7465 100.236C52.7758 100.147 52.8119 100.052 52.8471 99.9459C53.9556 96.7754 57.5822 87.6791 61.3925 78.2147C61.3983 78.1971 61.4101 78.1736 61.4159 78.1552C62.7551 74.8363 64.1068 71.4705 65.3922 68.3L65.6295 67.7072C67.2831 63.6118 68.8478 59.7303 70.0209 56.8089C70.1517 56.4768 70.2699 56.1691 70.394 55.8664L70.5181 55.5704L70.2397 55.4161C67.6437 53.9109 65.7243 51.4038 64.8229 48.5536C63.3471 43.9132 65.2497 38.6632 67.5665 34.6333C69.1899 31.8066 71.3298 29.2642 73.8362 27.1838C74.6302 26.5197 75.4897 25.8506 76.402 25.2754C78.168 24.161 80.1351 23.4147 82.2692 23.8172C85.0548 24.3505 87.0991 26.5843 87.9049 29.234C90.2276 36.8965 90.0088 49.7443 82.6071 54.6807H82.6096Z" fill="#E76F51"/>
<path d="M72.8677 52.2042C72.9876 52.4558 73.8949 52.6352 74.1196 52.6989C75.1468 52.9891 76.2394 53.0511 77.2942 52.8499C81.1959 52.1061 83.4741 48.2246 84.7537 44.681C86.663 39.3941 87.0605 32.6574 84.8443 27.4543C85.0866 28.0245 85.5101 28.5427 85.77 29.118C86.4911 30.717 86.9272 32.4545 87.1578 34.2053C88.0525 40.9781 87.0177 49.1092 81.0542 53.1232C78.6887 54.7156 74.3778 55.3705 72.8668 52.2042H72.8677Z" fill="white"/>
<path d="M71.1604 56.4243L71.708 56.6096L54.5384 108.676C54.5384 108.676 52.2828 105.947 54.4218 99.8221C56.5601 93.6967 71.1613 56.4252 71.1613 56.4252L71.1604 56.4243Z" fill="white"/>
<path d="M78.2745 26.5764C78.2745 26.5764 67.756 32.6071 67.0022 43.8676C67.0022 43.8676 88.356 33.8976 78.2745 26.5764Z" fill="white"/>
<path d="M52.8479 78.8999V110.073C52.6223 109.836 52.3917 109.522 52.1905 109.107C51.9356 108.597 51.7578 108.011 51.6631 107.359V78.8999H52.8479Z" fill="#E76F51"/>
<path d="M90.8414 95.6924H34.8867C34.5555 97.3753 33.2256 98.7052 31.5427 99.0364V108.66C33.2256 108.991 34.5555 110.321 34.8867 112.004H90.8414C91.1726 110.321 92.5025 108.991 94.1854 108.66V99.0364C92.5025 98.7052 91.1726 97.3753 90.8414 95.6924Z" fill="#E76F51"/>
<path d="M89.1021 102.635L87.685 104.052L89.1021 105.469L90.5192 104.052L89.1021 102.635Z" fill="#E75329"/>
<path d="M36.2543 102.636L34.8372 104.053L36.2543 105.47L37.6714 104.053L36.2543 102.636Z" fill="#E75329"/>
<path d="M89.4553 96.8071H36.0087C35.5307 98.2611 34.3643 99.4275 32.9103 99.9055V108.212C34.3643 108.69 35.5307 109.856 36.0087 111.31H89.4545C89.9325 109.856 91.0988 108.69 92.5528 108.212V99.9055C91.0988 99.4275 89.9325 98.2611 89.4545 96.8071H89.4553ZM92.09 107.888C90.7467 108.428 89.6708 109.503 89.1308 110.847H36.3324C35.7924 109.504 34.7174 108.428 33.3732 107.888V100.229C34.7165 99.6891 35.7924 98.6141 36.3324 97.27H89.1308C89.6708 98.6133 90.7458 99.6891 92.09 100.229V107.888Z" fill="white"/>
<path d="M42.5924 103.183C42.5924 103.197 42.5869 103.209 42.5759 103.22C42.5676 103.229 42.5566 103.233 42.5428 103.233H41.1896C41.1758 103.233 41.1689 103.24 41.1689 103.254V103.895C41.1689 103.909 41.1758 103.916 41.1896 103.916H42.0793C42.0931 103.916 42.1041 103.921 42.1124 103.932C42.1234 103.94 42.129 103.952 42.129 103.965V104.367C42.129 104.381 42.1234 104.393 42.1124 104.404C42.1041 104.412 42.0931 104.416 42.0793 104.416H41.1896C41.1758 104.416 41.1689 104.423 41.1689 104.437V105.579C41.1689 105.593 41.1634 105.605 41.1523 105.616C41.1441 105.625 41.133 105.629 41.1192 105.629H40.635C40.6213 105.629 40.6088 105.625 40.5978 105.616C40.5895 105.605 40.5854 105.593 40.5854 105.579V102.782C40.5854 102.768 40.5895 102.757 40.5978 102.749C40.6088 102.738 40.6213 102.732 40.635 102.732H42.5428C42.5566 102.732 42.5676 102.738 42.5759 102.749C42.5869 102.757 42.5924 102.768 42.5924 102.782V103.183ZM42.9507 105.629C42.9369 105.629 42.9245 105.625 42.9135 105.616C42.9052 105.605 42.901 105.593 42.901 105.579V102.782C42.901 102.768 42.9052 102.757 42.9135 102.749C42.9245 102.738 42.9369 102.732 42.9507 102.732H43.4349C43.4487 102.732 43.4597 102.738 43.468 102.749C43.479 102.757 43.4845 102.768 43.4845 102.782V105.579C43.4845 105.593 43.479 105.605 43.468 105.616C43.4597 105.625 43.4487 105.629 43.4349 105.629H42.9507ZM45.6517 102.782C45.6517 102.768 45.6559 102.757 45.6641 102.749C45.6752 102.738 45.6876 102.732 45.7014 102.732H46.1856C46.1994 102.732 46.2104 102.738 46.2187 102.749C46.2297 102.757 46.2352 102.768 46.2352 102.782V105.579C46.2352 105.593 46.2297 105.605 46.2187 105.616C46.2104 105.625 46.1994 105.629 46.1856 105.629H45.7179C45.6903 105.629 45.671 105.618 45.66 105.596L44.5882 103.825C44.5827 103.816 44.5772 103.814 44.5716 103.816C44.5661 103.816 44.5634 103.822 44.5634 103.833L44.5716 105.579C44.5716 105.593 44.5661 105.605 44.5551 105.616C44.5468 105.625 44.5358 105.629 44.522 105.629H44.0378C44.024 105.629 44.0116 105.625 44.0006 105.616C43.9923 105.605 43.9881 105.593 43.9881 105.579V102.782C43.9881 102.768 43.9923 102.757 44.0006 102.749C44.0116 102.738 44.024 102.732 44.0378 102.732H44.5054C44.533 102.732 44.5523 102.743 44.5634 102.765L45.631 104.528C45.6366 104.536 45.6421 104.541 45.6476 104.541C45.6531 104.538 45.6559 104.531 45.6559 104.52L45.6517 102.782ZM48.7272 103.183C48.7272 103.197 48.7217 103.209 48.7106 103.22C48.7024 103.229 48.6913 103.233 48.6775 103.233H47.3202C47.3064 103.233 47.2995 103.24 47.2995 103.254V103.895C47.2995 103.909 47.3064 103.916 47.3202 103.916H48.2099C48.2237 103.916 48.2347 103.921 48.243 103.932C48.2541 103.94 48.2596 103.952 48.2596 103.965V104.367C48.2596 104.381 48.2541 104.393 48.243 104.404C48.2347 104.412 48.2237 104.416 48.2099 104.416H47.3202C47.3064 104.416 47.2995 104.423 47.2995 104.437V105.107C47.2995 105.121 47.3064 105.128 47.3202 105.128H48.6775C48.6913 105.128 48.7024 105.134 48.7106 105.145C48.7217 105.153 48.7272 105.164 48.7272 105.178V105.579C48.7272 105.593 48.7217 105.605 48.7106 105.616C48.7024 105.625 48.6913 105.629 48.6775 105.629H46.7657C46.7519 105.629 46.7395 105.625 46.7284 105.616C46.7201 105.605 46.716 105.593 46.716 105.579V102.782C46.716 102.768 46.7201 102.757 46.7284 102.749C46.7395 102.738 46.7519 102.732 46.7657 102.732H48.6775C48.6913 102.732 48.7024 102.738 48.7106 102.749C48.7217 102.757 48.7272 102.768 48.7272 102.782V103.183ZM50.0108 105.629C49.997 105.629 49.9846 105.625 49.9736 105.616C49.9653 105.605 49.9611 105.593 49.9611 105.579V102.782C49.9611 102.768 49.9653 102.757 49.9736 102.749C49.9846 102.738 49.997 102.732 50.0108 102.732H51.0454C51.2523 102.732 51.433 102.769 51.5875 102.844C51.7447 102.916 51.8661 103.018 51.9517 103.15C52.0372 103.283 52.0799 103.436 52.0799 103.609V104.752C52.0799 104.925 52.0372 105.079 51.9517 105.211C51.8661 105.343 51.7447 105.447 51.5875 105.521C51.433 105.593 51.2523 105.629 51.0454 105.629H50.0108ZM50.5446 105.107C50.5446 105.121 50.5515 105.128 50.5653 105.128H51.0661C51.193 105.128 51.295 105.085 51.3723 105C51.4523 104.914 51.4937 104.8 51.4964 104.656V103.705C51.4964 103.561 51.4564 103.447 51.3764 103.361C51.2992 103.276 51.1943 103.233 51.0619 103.233H50.5653C50.5515 103.233 50.5446 103.24 50.5446 103.254V105.107ZM52.5689 105.629C52.5551 105.629 52.5427 105.625 52.5317 105.616C52.5234 105.605 52.5193 105.593 52.5193 105.579V102.782C52.5193 102.768 52.5234 102.757 52.5317 102.749C52.5427 102.738 52.5551 102.732 52.5689 102.732H53.0531C53.0669 102.732 53.0779 102.738 53.0862 102.749C53.0972 102.757 53.1028 102.768 53.1028 102.782V105.579C53.1028 105.593 53.0972 105.605 53.0862 105.616C53.0779 105.625 53.0669 105.629 53.0531 105.629H52.5689ZM55.27 102.782C55.27 102.768 55.2741 102.757 55.2824 102.749C55.2934 102.738 55.3058 102.732 55.3196 102.732H55.8038C55.8176 102.732 55.8286 102.738 55.8369 102.749C55.8479 102.757 55.8535 102.768 55.8535 102.782V105.579C55.8535 105.593 55.8479 105.605 55.8369 105.616C55.8286 105.625 55.8176 105.629 55.8038 105.629H55.3362C55.3086 105.629 55.2893 105.618 55.2782 105.596L54.2064 103.825C54.2009 103.816 54.1954 103.814 54.1899 103.816C54.1844 103.816 54.1816 103.822 54.1816 103.833L54.1899 105.579C54.1899 105.593 54.1844 105.605 54.1733 105.616C54.165 105.625 54.154 105.629 54.1402 105.629H53.656C53.6422 105.629 53.6298 105.625 53.6188 105.616C53.6105 105.605 53.6064 105.593 53.6064 105.579V102.782C53.6064 102.768 53.6105 102.757 53.6188 102.749C53.6298 102.738 53.6422 102.732 53.656 102.732H54.1237C54.1512 102.732 54.1706 102.743 54.1816 102.765L55.2493 104.528C55.2548 104.536 55.2603 104.541 55.2658 104.541C55.2713 104.538 55.2741 104.531 55.2741 104.52L55.27 102.782ZM56.4081 105.629C56.3943 105.629 56.3819 105.625 56.3709 105.616C56.3626 105.605 56.3585 105.593 56.3585 105.579V102.782C56.3585 102.768 56.3626 102.757 56.3709 102.749C56.3819 102.738 56.3943 102.732 56.4081 102.732H56.8923C56.9061 102.732 56.9171 102.738 56.9254 102.749C56.9365 102.757 56.942 102.768 56.942 102.782V105.579C56.942 105.593 56.9365 105.605 56.9254 105.616C56.9171 105.625 56.9061 105.629 56.8923 105.629H56.4081ZM59.1092 102.782C59.1092 102.768 59.1133 102.757 59.1216 102.749C59.1326 102.738 59.145 102.732 59.1588 102.732H59.643C59.6568 102.732 59.6678 102.738 59.6761 102.749C59.6871 102.757 59.6927 102.768 59.6927 102.782V105.579C59.6927 105.593 59.6871 105.605 59.6761 105.616C59.6678 105.625 59.6568 105.629 59.643 105.629H59.1754C59.1478 105.629 59.1285 105.618 59.1174 105.596L58.0456 103.825C58.0401 103.816 58.0346 103.814 58.0291 103.816C58.0236 103.816 58.0208 103.822 58.0208 103.833L58.0291 105.579C58.0291 105.593 58.0236 105.605 58.0125 105.616C58.0042 105.625 57.9932 105.629 57.9794 105.629H57.4952C57.4814 105.629 57.469 105.625 57.458 105.616C57.4497 105.605 57.4456 105.593 57.4456 105.579V102.782C57.4456 102.768 57.4497 102.757 57.458 102.749C57.469 102.738 57.4814 102.732 57.4952 102.732H57.9629C57.9905 102.732 58.0098 102.743 58.0208 102.765L59.0885 104.528C59.094 104.536 59.0995 104.541 59.105 104.541C59.1105 104.538 59.1133 104.531 59.1133 104.52L59.1092 102.782ZM61.2157 105.662C61.0033 105.662 60.8157 105.619 60.6529 105.534C60.4901 105.448 60.3632 105.33 60.2722 105.178C60.1839 105.023 60.1398 104.845 60.1398 104.644V103.717C60.1398 103.516 60.1839 103.338 60.2722 103.183C60.3632 103.029 60.4901 102.91 60.6529 102.827C60.8157 102.742 61.0033 102.699 61.2157 102.699C61.4254 102.699 61.6102 102.74 61.7702 102.823C61.933 102.906 62.0585 103.019 62.1468 103.163C62.2379 103.303 62.2834 103.46 62.2834 103.634V103.663C62.2834 103.677 62.2779 103.689 62.2668 103.7C62.2585 103.709 62.2475 103.713 62.2337 103.713H61.7495C61.7357 103.713 61.7233 103.709 61.7123 103.7C61.704 103.689 61.6999 103.677 61.6999 103.663V103.651C61.6999 103.524 61.6557 103.418 61.5675 103.332C61.4792 103.244 61.3619 103.2 61.2157 103.2C61.0667 103.2 60.9467 103.247 60.8557 103.34C60.7674 103.431 60.7233 103.551 60.7233 103.7V104.661C60.7233 104.81 60.7715 104.931 60.8681 105.025C60.9646 105.116 61.0874 105.161 61.2364 105.161C61.3799 105.161 61.4943 105.124 61.5799 105.05C61.6654 104.972 61.7082 104.866 61.7082 104.731V104.545C61.7082 104.531 61.7013 104.524 61.6875 104.524H61.224C61.2102 104.524 61.1978 104.52 61.1867 104.512C61.1785 104.501 61.1743 104.488 61.1743 104.474V104.094C61.1743 104.08 61.1785 104.069 61.1867 104.061C61.1978 104.049 61.2102 104.044 61.224 104.044H62.2337C62.2475 104.044 62.2585 104.049 62.2668 104.061C62.2779 104.069 62.2834 104.08 62.2834 104.094V104.64C62.2834 104.85 62.2392 105.032 62.151 105.186C62.0627 105.341 61.9371 105.459 61.7744 105.542C61.6144 105.622 61.4281 105.662 61.2157 105.662ZM63.4855 105.96C63.4717 105.96 63.4593 105.954 63.4483 105.943C63.44 105.935 63.4359 105.924 63.4359 105.91V102.533C63.4359 102.52 63.44 102.509 63.4483 102.5C63.4593 102.489 63.4717 102.484 63.4855 102.484H63.9697C63.9835 102.484 63.9946 102.489 64.0028 102.5C64.0139 102.509 64.0194 102.52 64.0194 102.533V105.91C64.0194 105.924 64.0139 105.935 64.0028 105.943C63.9946 105.954 63.9835 105.96 63.9697 105.96H63.4855ZM67.2279 102.732C67.2417 102.732 67.2527 102.738 67.261 102.749C67.272 102.757 67.2775 102.768 67.2775 102.782V103.187C67.2775 103.201 67.272 103.214 67.261 103.225C67.2527 103.233 67.2417 103.237 67.2279 103.237H66.4871C66.4733 103.237 66.4664 103.244 66.4664 103.258V105.579C66.4664 105.593 66.4609 105.605 66.4499 105.616C66.4416 105.625 66.4306 105.629 66.4168 105.629H65.9326C65.9188 105.629 65.9064 105.625 65.8953 105.616C65.8871 105.605 65.8829 105.593 65.8829 105.579V103.258C65.8829 103.244 65.876 103.237 65.8622 103.237H65.1422C65.1284 103.237 65.116 103.233 65.1049 103.225C65.0967 103.214 65.0925 103.201 65.0925 103.187V102.782C65.0925 102.768 65.0967 102.757 65.1049 102.749C65.116 102.738 65.1284 102.732 65.1422 102.732H67.2279ZM69.2246 105.629C69.197 105.629 69.1791 105.615 69.1708 105.588L69.0467 105.182C69.0411 105.171 69.0342 105.165 69.026 105.165H68.008C67.9997 105.165 67.9928 105.171 67.9873 105.182L67.8673 105.588C67.859 105.615 67.841 105.629 67.8135 105.629H67.2879C67.2713 105.629 67.2589 105.625 67.2507 105.616C67.2424 105.605 67.241 105.59 67.2465 105.571L68.1404 102.774C68.1487 102.746 68.1666 102.732 68.1942 102.732H68.8439C68.8715 102.732 68.8894 102.746 68.8977 102.774L69.7915 105.571C69.7943 105.576 69.7957 105.583 69.7957 105.592C69.7957 105.616 69.7805 105.629 69.7502 105.629H69.2246ZM68.1362 104.69C68.1335 104.706 68.139 104.714 68.1528 104.714H68.8811C68.8977 104.714 68.9032 104.706 68.8977 104.69L68.5252 103.46C68.5225 103.449 68.5183 103.445 68.5128 103.448C68.5073 103.448 68.5032 103.452 68.5004 103.46L68.1362 104.69ZM70.2091 105.629C70.1953 105.629 70.1829 105.625 70.1718 105.616C70.1636 105.605 70.1594 105.593 70.1594 105.579V102.782C70.1594 102.768 70.1636 102.757 70.1718 102.749C70.1829 102.738 70.1953 102.732 70.2091 102.732H70.6933C70.7071 102.732 70.7181 102.738 70.7264 102.749C70.7374 102.757 70.7429 102.768 70.7429 102.782V103.94C70.7429 103.949 70.7457 103.954 70.7512 103.957C70.7567 103.957 70.7622 103.954 70.7678 103.949L71.7237 102.761C71.7402 102.742 71.7609 102.732 71.7858 102.732H72.332C72.3541 102.732 72.3679 102.739 72.3734 102.753C72.3789 102.764 72.3762 102.778 72.3651 102.794L71.4423 103.974C71.434 103.985 71.4326 103.994 71.4382 104.003L72.4148 105.571C72.4203 105.588 72.4231 105.597 72.4231 105.6C72.4231 105.619 72.4093 105.629 72.3817 105.629H71.8354C71.8078 105.629 71.7885 105.618 71.7775 105.596L71.0409 104.404C71.0381 104.398 71.034 104.396 71.0285 104.396C71.0229 104.396 71.0174 104.398 71.0119 104.404L70.7512 104.731C70.7457 104.742 70.7429 104.75 70.7429 104.756V105.579C70.7429 105.593 70.7374 105.605 70.7264 105.616C70.7181 105.625 70.7071 105.629 70.6933 105.629H70.2091ZM74.7611 103.183C74.7611 103.197 74.7556 103.209 74.7445 103.22C74.7363 103.229 74.7252 103.233 74.7114 103.233H73.3541C73.3403 103.233 73.3334 103.24 73.3334 103.254V103.895C73.3334 103.909 73.3403 103.916 73.3541 103.916H74.2438C74.2576 103.916 74.2686 103.921 74.2769 103.932C74.2879 103.94 74.2935 103.952 74.2935 103.965V104.367C74.2935 104.381 74.2879 104.393 74.2769 104.404C74.2686 104.412 74.2576 104.416 74.2438 104.416H73.3541C73.3403 104.416 73.3334 104.423 73.3334 104.437V105.107C73.3334 105.121 73.3403 105.128 73.3541 105.128H74.7114C74.7252 105.128 74.7363 105.134 74.7445 105.145C74.7556 105.153 74.7611 105.164 74.7611 105.178V105.579C74.7611 105.593 74.7556 105.605 74.7445 105.616C74.7363 105.625 74.7252 105.629 74.7114 105.629H72.7995C72.7858 105.629 72.7733 105.625 72.7623 105.616C72.754 105.605 72.7499 105.593 72.7499 105.579V102.782C72.7499 102.768 72.754 102.757 72.7623 102.749C72.7733 102.738 72.7858 102.732 72.7995 102.732H74.7114C74.7252 102.732 74.7363 102.738 74.7445 102.749C74.7556 102.757 74.7611 102.768 74.7611 102.782V103.183ZM77.0081 105.629C76.9805 105.629 76.9626 105.615 76.9543 105.588L76.8302 105.182C76.8246 105.171 76.8177 105.165 76.8095 105.165H75.7914C75.7832 105.165 75.7763 105.171 75.7708 105.182L75.6507 105.588C75.6425 105.615 75.6245 105.629 75.5969 105.629H75.0714C75.0548 105.629 75.0424 105.625 75.0341 105.616C75.0259 105.605 75.0245 105.59 75.03 105.571L75.9239 102.774C75.9321 102.746 75.9501 102.732 75.9777 102.732H76.6274C76.655 102.732 76.6729 102.746 76.6812 102.774L77.575 105.571C77.5778 105.576 77.5792 105.583 77.5792 105.592C77.5792 105.616 77.564 105.629 77.5337 105.629H77.0081ZM75.9197 104.69C75.917 104.706 75.9225 104.714 75.9363 104.714H76.6646C76.6812 104.714 76.6867 104.706 76.6812 104.69L76.3087 103.46C76.306 103.449 76.3018 103.445 76.2963 103.448C76.2908 103.448 76.2867 103.452 76.2839 103.46L75.9197 104.69ZM78.5076 105.629C78.4772 105.629 78.4579 105.615 78.4496 105.588L77.7172 102.786L77.713 102.769C77.713 102.745 77.7282 102.732 77.7585 102.732H78.2717C78.2993 102.732 78.3172 102.746 78.3255 102.774L78.7186 104.458C78.7214 104.469 78.7255 104.474 78.731 104.474C78.7366 104.474 78.7407 104.469 78.7435 104.458L79.1242 102.778C79.1325 102.747 79.1504 102.732 79.178 102.732H79.6787C79.709 102.732 79.7284 102.746 79.7366 102.774L80.1505 104.458C80.1532 104.466 80.1574 104.472 80.1629 104.474C80.1684 104.474 80.1725 104.469 80.1753 104.458L80.556 102.778C80.5643 102.747 80.5822 102.732 80.6098 102.732H81.0981C81.1368 102.732 81.1519 102.75 81.1436 102.786L80.465 105.588C80.4567 105.615 80.4374 105.629 80.407 105.629H79.9146C79.887 105.629 79.8691 105.615 79.8608 105.588L79.4387 103.796C79.4359 103.785 79.4318 103.779 79.4263 103.779C79.4208 103.779 79.4166 103.785 79.4139 103.796L79.0207 105.583C79.0152 105.614 78.9973 105.629 78.9669 105.629H78.5076ZM82.9205 105.629C82.8929 105.629 82.875 105.615 82.8667 105.588L82.7425 105.182C82.737 105.171 82.7301 105.165 82.7218 105.165H81.7038C81.6956 105.165 81.6887 105.171 81.6831 105.182L81.5631 105.588C81.5549 105.615 81.5369 105.629 81.5093 105.629H80.9838C80.9672 105.629 80.9548 105.625 80.9465 105.616C80.9383 105.605 80.9369 105.59 80.9424 105.571L81.8363 102.774C81.8445 102.746 81.8625 102.732 81.8901 102.732H82.5398C82.5673 102.732 82.5853 102.746 82.5936 102.774L83.4874 105.571C83.4902 105.576 83.4916 105.583 83.4916 105.592C83.4916 105.616 83.4764 105.629 83.446 105.629H82.9205ZM81.8321 104.69C81.8294 104.706 81.8349 104.714 81.8487 104.714H82.577C82.5936 104.714 82.5991 104.706 82.5936 104.69L82.2211 103.46C82.2184 103.449 82.2142 103.445 82.2087 103.448C82.2032 103.448 82.199 103.452 82.1963 103.46L81.8321 104.69ZM84.2737 105.625C84.2599 105.625 84.2475 105.621 84.2365 105.612C84.2282 105.601 84.2241 105.589 84.2241 105.575V104.528C84.2241 104.517 84.2227 104.509 84.2199 104.503L83.3674 102.79C83.3619 102.779 83.3592 102.771 83.3592 102.765C83.3592 102.743 83.3743 102.732 83.4047 102.732H83.9261C83.9537 102.732 83.973 102.745 83.9841 102.769L84.5013 103.87C84.5096 103.887 84.5179 103.887 84.5262 103.87L85.0434 102.769C85.0545 102.745 85.0738 102.732 85.1014 102.732H85.6311C85.6504 102.732 85.6628 102.738 85.6683 102.749C85.6766 102.757 85.6766 102.771 85.6683 102.79L84.8076 104.503C84.8048 104.509 84.8034 104.517 84.8034 104.528V105.575C84.8034 105.589 84.7979 105.601 84.7869 105.612C84.7786 105.621 84.7676 105.625 84.7538 105.625H84.2737Z" fill="white"/>
</g>
<defs>
<clipPath id="clip0_1_5057">
<rect width="95.2856" height="112.004" fill="white"/>
</clipPath>
</defs>
</svg>
