<svg width="87" height="16" viewBox="0 0 87 16" fill="none" xmlns="http://www.w3.org/2000/svg">
<path fill-rule="evenodd" clip-rule="evenodd" d="M70.135 11.5248L53.26 11.2475L44.8224 11.0693C42.0066 11.0099 39.2008 11.0099 36.3849 11.0693L32.1611 11.1782C31.6332 11.2005 31.1052 11.2186 30.5772 11.2367C29.6973 11.2669 28.8173 11.297 27.9374 11.3465C25.3126 11.4653 22.6777 11.6337 20.0529 11.8713C19.8619 9.35644 14.8235 8 10.0466 8C5.26968 8 0.593348 9.27723 0.100573 11.6337L0.0201176 11.9208C0.0201176 11.9297 0.016053 11.9386 0.0115778 11.9484C0.00609684 11.9604 0 11.9737 0 11.9901C0 14.5941 5.16912 16 10.0365 16C14.9039 16 19.8518 14.6436 20.0429 12.1287C22.6677 12.3663 25.3025 12.5248 27.9273 12.6535C28.8073 12.703 29.6872 12.7331 30.5672 12.7633C31.0951 12.7814 31.6231 12.7995 32.1511 12.8218L36.3749 12.9307C39.1907 12.9901 41.9965 12.9802 44.8124 12.9307L53.2499 12.7525L70.125 12.4752C72.2368 12.4269 74.35 12.3827 76.4636 12.3386C79.9764 12.2652 83.4902 12.1917 87 12.099V11.9109C83.4902 11.8182 79.9764 11.7447 76.4637 11.6713C74.3501 11.6272 72.2368 11.583 70.125 11.5347L70.135 11.5248ZM1 12C1 13.2213 4.50424 15 10 15C15.4958 15 19 13.2213 19 12C19 10.7787 15.4958 9 10 9C4.50424 9 1 10.7787 1 12Z" fill="#FF7C57"/>
</svg>
