<svg width="60" height="60" viewBox="0 0 60 60" fill="none" xmlns="http://www.w3.org/2000/svg">
<path fill-rule="evenodd" clip-rule="evenodd" d="M54.7136 30.1122C52.3549 28.2587 49.6759 27.2581 46.637 27.067V27.0657C46.0597 24.7654 45.7878 22.475 45.7394 20.1585C45.6339 15.1258 46.3651 10.2061 47.8014 5.38816C47.9566 4.86676 47.9976 4.37641 47.4414 4.10205C46.8952 3.83267 46.5141 4.13309 46.1901 4.57752C45.7889 5.12839 45.3802 5.67396 44.9715 6.2195C44.2787 7.14432 43.586 8.06904 42.9301 9.01929C38.6497 15.2239 35.2321 21.8456 33.2893 29.1712C32.1199 33.5769 31.5389 38.0547 32.0243 42.5958C32.8734 50.5384 39.9954 56.0254 47.9504 54.9826C53.3965 54.2688 58.0418 50.1883 59.4992 44.8378C60.9865 39.3781 59.0896 33.5521 54.7136 30.1122ZM20.8553 28.7968C18.9646 27.7503 16.9312 27.2041 14.6048 27.0539L14.606 27.0527C14.5321 26.4402 14.4477 25.8277 14.3633 25.2149C14.1757 23.8527 13.9878 22.4886 13.9133 21.1187C13.6228 15.7521 14.4012 10.5034 15.9219 5.35896C16.0684 4.85991 16.1069 4.39438 15.588 4.1163C15.0815 3.84443 14.6942 4.0803 14.3639 4.50238C9.59815 10.6002 5.57597 17.1276 2.90321 24.4233C0.794044 30.1785 -0.380333 36.0864 0.111267 42.2538C0.761768 50.4223 8.39149 56.3413 16.4669 54.9336C22.4356 53.8933 26.9618 49.2702 27.976 43.1774C28.9183 37.5165 26.0134 31.6533 20.8553 28.7968Z" fill="#FFF9F6"/>
</svg>
