<svg width="60" height="60" viewBox="0 0 60 60" fill="none" xmlns="http://www.w3.org/2000/svg">
<path fill-rule="evenodd" clip-rule="evenodd" d="M54.7136 30.1122C52.3549 28.2587 49.6759 27.2581 46.637 27.067V27.0657C46.0597 24.7654 45.7878 22.475 45.7394 20.1585C45.6339 15.1258 46.3651 10.2061 47.8014 5.38816C47.9566 4.86676 47.9976 4.37641 47.4414 4.10205C46.8952 3.83267 46.5141 4.13309 46.1901 4.57752C45.7889 5.12839 45.3802 5.67396 44.9715 6.2195C44.2787 7.14432 43.586 8.06904 42.9301 9.01929C38.6497 15.2239 35.2321 21.8456 33.2893 29.1712C32.1199 33.5769 31.5389 38.0547 32.0243 42.5958C32.8734 50.5384 39.9954 56.0254 47.9504 54.9826C53.3965 54.2688 58.0418 50.1883 59.4992 44.8378C60.9865 39.3781 59.0896 33.5521 54.7136 30.1122ZM44.9224 9.14718C44.9403 9.11825 44.962 9.08321 44.9896 9.03916L44.9921 9.04164C44.9052 9.68204 44.8152 10.3079 44.7265 10.9241C44.5326 12.2717 44.3454 13.5732 44.2125 14.88C43.7705 19.225 43.9592 23.5364 45.0542 27.7845C45.2702 28.6237 45.4551 28.7652 46.3465 28.8012C52.5945 29.052 57.5192 33.6191 58.2318 39.8237C58.9642 46.2058 54.3089 52.285 47.9553 53.2434C40.5851 54.3545 34.1322 49.1182 33.6704 41.707C33.2856 35.5235 34.5866 29.6516 36.8037 23.9374C38.8384 18.6961 41.608 13.8558 44.8431 9.2713C44.8655 9.23894 44.8863 9.20547 44.9224 9.14718ZM20.8553 28.7968C18.9646 27.7503 16.9312 27.2041 14.6048 27.0539L14.606 27.0527C14.5321 26.4402 14.4477 25.8277 14.3633 25.2149C14.1757 23.8527 13.9878 22.4886 13.9133 21.1187C13.6228 15.7521 14.4012 10.5034 15.9219 5.35896C16.0684 4.85991 16.1069 4.39438 15.588 4.1163C15.0815 3.84443 14.6942 4.0803 14.3639 4.50238C9.59815 10.6002 5.57597 17.1276 2.90321 24.4233C0.794044 30.1785 -0.380333 36.0864 0.111267 42.2538C0.761768 50.4223 8.39149 56.3413 16.4669 54.9336C22.4356 53.8933 26.9618 49.2702 27.976 43.1774C28.9183 37.5165 26.0134 31.6533 20.8553 28.7968ZM13.1236 9.18962L13.0232 9.16513C12.853 9.4157 12.6813 9.66526 12.5097 9.91478C12.1457 10.444 11.7818 10.9731 11.4317 11.5114C6.62248 18.9053 2.98142 26.7646 1.93118 35.637C1.63945 38.105 1.51406 40.6002 1.94235 43.047C3.14776 49.9518 9.2009 54.2508 16.128 53.2328C22.7311 52.262 27.5055 45.515 26.2232 38.9677C25.0624 33.0462 20.4493 29.0749 14.4049 28.7944C13.5732 28.7559 13.3708 28.5895 13.1647 27.7838C11.9581 23.0565 11.8861 18.2721 12.4733 13.4617C12.5915 12.4896 12.7488 11.5215 12.9061 10.5536C12.98 10.099 13.0538 9.64451 13.1236 9.18962Z" fill="#FF7C57"/>
</svg>
