<svg width="66" height="66" viewBox="0 0 66 66" fill="none" xmlns="http://www.w3.org/2000/svg">
<path fill-rule="evenodd" clip-rule="evenodd" d="M57.7136 33.1122C55.3549 31.2587 52.6759 30.2581 49.637 30.067V30.0657C49.0597 27.7654 48.7878 25.475 48.7394 23.1585C48.6339 18.1258 49.3651 13.2061 50.8014 8.38816C50.9566 7.86676 50.9976 7.37641 50.4414 7.10205C49.8952 6.83267 49.5141 7.13309 49.1901 7.57752C48.7889 8.12839 48.3802 8.67396 47.9715 9.2195C47.2787 10.1443 46.586 11.069 45.9301 12.0193C41.6497 18.2239 38.2321 24.8456 36.2893 32.1712C35.1199 36.5769 34.5389 41.0547 35.0243 45.5958C35.8734 53.5384 42.9954 59.0254 50.9504 57.9826C56.3965 57.2688 61.0418 53.1883 62.4992 47.8378C63.9865 42.3781 62.0896 36.5521 57.7136 33.1122ZM23.8553 31.7968C21.9646 30.7503 19.9312 30.2041 17.6048 30.0539L17.606 30.0527C17.5321 29.4402 17.4477 28.8277 17.3633 28.2149C17.1757 26.8527 16.9878 25.4886 16.9133 24.1187C16.6228 18.7521 17.4012 13.5034 18.9219 8.35896C19.0684 7.85991 19.1069 7.39438 18.588 7.1163C18.0815 6.84443 17.6942 7.0803 17.3639 7.50238C12.5982 13.6002 8.57597 20.1276 5.90321 27.4233C3.79404 33.1785 2.61967 39.0864 3.11127 45.2538C3.76177 53.4223 11.3915 59.3413 19.4669 57.9336C25.4356 56.8933 29.9618 52.2702 30.976 46.1774C31.9183 40.5165 29.0134 34.6533 23.8553 31.7968Z" fill="#FFF9F6"/>
</svg>
