<svg width="230" height="24" viewBox="0 0 230 24" fill="none" xmlns="http://www.w3.org/2000/svg">
<path d="M216.919 16.5914C215.581 15.4155 214.003 14.5585 212.335 13.9407C208.999 12.6851 205.343 12.3164 201.837 12.6353C202.716 12.7051 203.545 12.9642 204.314 13.303C205.083 13.6318 205.792 14.0603 206.442 14.5585C207.74 15.5351 208.799 16.7309 209.668 18.0263C210.097 18.684 210.457 19.3317 210.926 20.0691C211.406 20.7667 211.975 21.4542 212.734 22.0222C212.924 22.1717 213.134 22.2913 213.344 22.4208C213.573 22.5205 213.793 22.65 214.053 22.7198C214.542 22.8992 215.102 22.9789 215.651 22.939C216.2 22.9091 216.74 22.7596 217.209 22.5404C217.449 22.4208 217.669 22.3013 217.878 22.1319C217.988 22.0422 218.088 21.9625 218.188 21.8628L218.458 21.5539C218.787 21.1055 218.917 20.5674 218.907 20.0691C218.887 19.5709 218.757 19.1125 218.558 18.7039C218.158 17.8769 217.569 17.1893 216.909 16.6013L216.919 16.5914ZM217.189 20.8165C217.189 20.8165 217.099 20.9161 217.059 20.966C217.009 21.0158 216.949 21.0556 216.899 21.1055C216.78 21.1952 216.63 21.2848 216.49 21.3646C216.19 21.514 215.871 21.6037 215.551 21.6236C215.221 21.6535 214.892 21.6137 214.572 21.4941C214.402 21.4542 214.253 21.3646 214.093 21.2948C213.943 21.1952 213.783 21.1254 213.633 21.0158C213.034 20.6072 212.515 20.0392 212.055 19.4314C211.636 18.8235 211.166 18.106 210.657 17.4484C209.648 16.123 208.389 14.9272 206.891 14.0204C206.142 13.572 205.333 13.1934 204.474 12.9442C204.324 12.9044 204.174 12.8844 204.024 12.8446C206.761 13.1834 209.428 13.8112 211.835 14.8774C213.334 15.565 214.782 16.3921 215.881 17.4583C216.43 17.9865 216.909 18.5644 217.189 19.1823C217.469 19.7901 217.489 20.4079 217.189 20.8065V20.8165ZM223.262 7.98172C227.238 3.01921 220.515 0.707355 220.515 0.707355C220.425 7.15463 210.377 11.1605 208.05 12.0075C206.941 11.9776 205.832 11.9577 204.724 11.9278C207.251 11.4794 209.718 10.6523 211.925 9.3768C213.443 8.50986 214.832 7.41372 215.921 6.04853C216.45 5.36096 216.889 4.59366 217.119 3.71675C217.229 3.2783 217.269 2.79998 217.189 2.3117C217.109 1.82342 216.87 1.31521 216.46 0.926582L216.13 0.657531C216.011 0.577812 215.891 0.518022 215.771 0.448268C215.531 0.318725 215.291 0.229041 215.032 0.149322C214.522 -0.00015174 213.963 -0.059941 213.414 -0.0101166C212.864 0.0397078 212.335 0.209111 211.885 0.458233C211.646 0.567847 211.456 0.727285 211.246 0.866793C211.066 1.02623 210.876 1.1757 210.717 1.35507C210.077 2.03268 209.658 2.79998 209.328 3.55731C209.009 4.3545 208.779 5.04208 208.489 5.75955C207.89 7.1646 207.091 8.51982 206.002 9.67575C205.463 10.2637 204.853 10.7918 204.154 11.2402C203.785 11.4794 203.395 11.6887 202.986 11.878C197.891 11.7584 192.797 11.6488 187.703 11.5292L167.227 11.1804L156.989 10.9612C153.573 10.8915 150.167 10.8815 146.751 10.9513L141.636 11.0908C139.928 11.1605 138.22 11.2103 136.522 11.3C133.346 11.4495 130.16 11.6488 126.983 11.9378C126.764 8.84866 120.621 7.18453 114.827 7.18453C109.034 7.18453 103.301 8.73905 102.711 11.6388C99.6249 11.3598 96.5485 11.1705 93.4621 11.021C91.754 10.9313 90.046 10.8815 88.348 10.8117L83.2339 10.6722C79.8178 10.6025 76.4118 10.6124 72.9957 10.6822L62.7575 10.9014L42.2812 11.2502C35.4591 11.4096 28.6369 11.5292 21.8148 11.7086V11.7584C13.8041 11.7385 6.77219 3.29822 6.77219 3.29822C2.67692 7.64291 6.55245 10.9313 6.55245 10.9313C6.55245 10.9313 2.16751 9.28712 0.469471 12.0075C-1.31846 14.8675 2.35729 19.1025 6.73224 15.9636C2.75683 20.9261 9.47906 23.238 9.47906 23.238C9.56896 16.7907 19.6174 12.7848 21.9447 11.9378C23.0534 11.9677 24.1621 11.9876 25.2708 12.0175C22.7437 12.4659 20.2766 13.293 18.0691 14.5685C16.5509 15.4454 15.1625 16.5316 14.0738 17.8968C13.5444 18.5844 13.1049 19.3517 12.8751 20.2286C12.7653 20.667 12.7253 21.1453 12.8052 21.6336C12.8851 22.1219 13.1249 22.6301 13.5344 23.0187L13.864 23.2878C13.9839 23.3675 14.1037 23.4273 14.2236 23.497C14.4633 23.6266 14.703 23.7163 14.9627 23.796C15.4721 23.9455 16.0315 24.0053 16.5809 23.9554C17.1302 23.9056 17.6596 23.7362 18.1091 23.4871C18.3488 23.3775 18.5386 23.218 18.7484 23.0785C18.9282 22.9191 19.1179 22.7696 19.2777 22.5902C19.917 21.9126 20.3365 21.1453 20.6661 20.388C20.9858 19.5908 21.2155 18.9032 21.5052 18.1858C22.1045 16.7807 22.9036 15.4255 23.9923 14.2696C24.5317 13.6816 25.141 13.1535 25.8402 12.7051C26.2097 12.4659 26.5993 12.2567 27.0088 12.0673C32.1029 12.1869 37.197 12.2965 42.2912 12.4161L62.7675 12.7649L73.0057 12.9841C76.4217 13.0538 79.8278 13.0638 83.2439 12.9941L88.358 12.8545C90.066 12.7848 91.774 12.7449 93.4721 12.6453C96.5385 12.4958 99.605 12.3065 102.671 12.0275C102.671 12.0574 102.671 12.0773 102.671 12.1072C102.671 15.3059 108.944 17.0398 114.847 17.0398C120.751 17.0398 126.774 15.3757 127.003 12.2865C130.18 12.5755 133.366 12.7748 136.542 12.9243C138.25 13.014 139.958 13.0638 141.656 13.1336L146.77 13.2731C150.187 13.3428 153.593 13.3329 157.009 13.2631L167.247 13.0439L187.723 12.6951C194.545 12.5357 201.367 12.4161 208.2 12.2367V12.1869C216.21 12.2068 223.242 20.6471 223.242 20.6471C227.337 16.3024 223.462 13.014 223.462 13.014C223.462 13.014 227.847 14.6582 229.545 11.9378C231.333 9.07786 227.657 4.84278 223.282 7.98172H223.262ZM25.6104 12.4061C24.8114 12.7748 24.0922 13.283 23.4429 13.8411C22.1444 14.9671 21.1456 16.3423 20.4064 17.7971C20.0469 18.5246 19.7172 19.3018 19.4276 19.9695C19.098 20.6371 18.6984 21.2749 18.189 21.7731C18.0691 21.9027 17.9193 22.0023 17.7895 22.1219C17.6396 22.2116 17.5098 22.3212 17.36 22.3909C17.0603 22.5504 16.7507 22.6401 16.421 22.67C16.1014 22.6999 15.7618 22.67 15.4422 22.5603C15.2824 22.5105 15.1225 22.4507 14.9927 22.371C14.9328 22.3312 14.8628 22.3013 14.8029 22.2614C14.753 22.2116 14.703 22.1717 14.6431 22.1319C14.2635 21.7831 14.1637 21.1752 14.3135 20.5275C14.4633 19.8798 14.8329 19.242 15.2624 18.6342C16.1414 17.4085 17.3899 16.3722 18.7384 15.4653C20.8959 14.0404 23.393 13.014 26.0299 12.2467C25.8901 12.3065 25.7403 12.3463 25.6004 12.4161L25.6104 12.4061ZM114.827 15.2063C108.665 15.2063 104.739 13.3827 104.739 12.1271C104.739 10.8715 108.665 9.04796 114.827 9.04796C120.99 9.04796 124.916 10.8715 124.916 12.1271C124.916 13.3827 120.99 15.2063 114.827 15.2063ZM204.374 11.5691C205.173 11.2004 205.892 10.6922 206.541 10.1341C207.84 9.0081 208.839 7.63295 209.578 6.17808C209.938 5.45064 210.267 4.67338 210.557 4.00573C210.886 3.33808 211.286 2.70033 211.795 2.20209C211.915 2.07254 212.065 1.9729 212.195 1.85332C212.345 1.76363 212.475 1.65402 212.624 1.58426C212.924 1.42483 213.234 1.33514 213.563 1.30525C213.883 1.27535 214.223 1.30525 214.542 1.41486C214.702 1.46469 214.862 1.53444 214.992 1.60419C215.052 1.64405 215.122 1.67395 215.181 1.71381C215.231 1.76363 215.281 1.80349 215.341 1.84335C215.721 2.19212 215.821 2.79998 215.671 3.4477C215.521 4.09542 215.152 4.73317 214.722 5.34103C213.843 6.56671 212.594 7.60305 211.246 8.50986C209.089 9.93484 206.591 10.9612 203.954 11.7285C204.094 11.6687 204.244 11.6289 204.374 11.5591V11.5691ZM13.0649 7.39379C14.4034 8.56965 15.9816 9.42663 17.6496 10.0444C20.9858 11.3 24.6416 11.6687 28.1475 11.3499C27.2685 11.2801 26.4395 11.021 25.6704 10.6822C24.9013 10.3534 24.1921 9.92487 23.5428 9.42663C22.2443 8.45007 21.1855 7.25428 20.3165 5.95885C19.887 5.30117 19.5275 4.65345 19.058 3.91605C18.5786 3.21851 18.0092 2.53093 17.2501 1.96293C17.0603 1.81346 16.8506 1.69388 16.6408 1.56433C16.4111 1.46469 16.1913 1.33514 15.9316 1.26539C15.4422 1.08602 14.8828 1.0063 14.3335 1.04616C13.7841 1.07606 13.2447 1.22553 12.7753 1.44476C12.5355 1.56434 12.3158 1.68391 12.106 1.85332C11.9962 1.943 11.8963 2.02272 11.7964 2.12237L11.5267 2.43128C11.1971 2.8797 11.0672 3.4178 11.0772 3.91605C11.0972 4.41429 11.227 4.87268 11.4168 5.28124C11.8164 6.10832 12.4057 6.7959 13.0649 7.38383V7.39379ZM12.7952 3.16868C12.7952 3.16868 12.8851 3.06903 12.9251 3.01921C12.975 2.96938 13.035 2.92952 13.0849 2.8797C13.2048 2.79002 13.3546 2.70033 13.4944 2.62061C13.7941 2.47114 14.1137 2.38146 14.4333 2.36153C14.763 2.33163 15.0926 2.37149 15.4122 2.49107C15.582 2.53093 15.7318 2.62061 15.8917 2.69037C16.0415 2.79002 16.2013 2.85977 16.3511 2.96938C16.9504 3.37794 17.4698 3.94594 17.9293 4.5538C18.3488 5.16166 18.8183 5.87913 19.3277 6.53681C20.3365 7.86214 21.5951 9.05793 23.0933 9.96473C23.8425 10.4132 24.6515 10.7918 25.5105 11.0409C25.6604 11.0808 25.8102 11.1007 25.96 11.1406C23.2232 10.8018 20.5563 10.174 18.149 9.10775C16.6508 8.42017 15.2025 7.59309 14.1037 6.52685C13.5544 5.99871 13.0749 5.42075 12.7952 4.80292C12.5156 4.19506 12.4956 3.57724 12.7952 3.17865V3.16868Z" fill="#FF7C57"/>
</svg>
